<svg width="15" height="17" viewBox="0 0 15 17" fill="none" xmlns="http://www.w3.org/2000/svg">
<path d="M2.80775 16.8845C2.30908 16.8845 1.88308 16.7079 1.52975 16.3547C1.17658 16.0014 1 15.5754 1 15.0768V2.3845H0V0.8845H4.5V0H10.5V0.8845H15V2.3845H14V15.0768C14 15.5819 13.825 16.0095 13.475 16.3595C13.125 16.7095 12.6974 16.8845 12.1923 16.8845H2.80775ZM12.5 2.3845H2.5V15.0768C2.5 15.1666 2.52883 15.2403 2.5865 15.298C2.64417 15.3557 2.71792 15.3845 2.80775 15.3845H12.1923C12.2692 15.3845 12.3398 15.3524 12.4038 15.2883C12.4679 15.2243 12.5 15.1538 12.5 15.0768V2.3845ZM4.904 13.3845H6.40375V4.3845H4.904V13.3845ZM8.59625 13.3845H10.096V4.3845H8.59625V13.3845Z" fill="#FF671F"/>
</svg>
