<svg width="50" height="49" viewBox="0 0 50 49" fill="none" xmlns="http://www.w3.org/2000/svg">
<path d="M25 23.6289C21.7934 23.6289 19.0485 22.4873 16.7653 20.2041C14.4816 17.9203 13.3397 15.1752 13.3397 11.9686C13.3397 8.76196 14.4816 6.01709 16.7653 3.73389C19.0485 1.4502 21.7934 0.30835 25 0.30835C28.2066 0.30835 30.9515 1.4502 33.2347 3.73389C35.5184 6.01709 36.6603 8.76196 36.6603 11.9686C36.6603 15.1752 35.5184 17.9203 33.2347 20.2041C30.9515 22.4873 28.2066 23.6289 25 23.6289ZM0.0136719 49V41.5933C0.0136719 39.9619 0.456772 38.451 1.34294 37.0607C2.22913 35.6703 3.41348 34.6014 4.896 33.8541C8.18864 32.24 11.5104 31.0293 14.8614 30.2219C18.2123 29.4146 21.5919 29.011 25 29.011C28.4081 29.011 31.7877 29.4146 35.1386 30.2219C38.4896 31.0293 41.8114 32.24 45.104 33.8541C46.5865 34.6014 47.7709 35.6703 48.6571 37.0607C49.5432 38.451 49.9863 39.9619 49.9863 41.5933V49H0.0136719Z" fill="#ACB8C6"/>
</svg>
