<svg width="17" height="18" viewBox="0 0 17 18" fill="none" xmlns="http://www.w3.org/2000/svg">
<path d="M3.5 13.1667C3.5 13.9416 3.5 14.3291 3.58519 14.647C3.81635 15.5098 4.49022 16.1836 5.35295 16.4148C5.67087 16.5 6.05836 16.5 6.83333 16.5H12C13.4001 16.5 14.1002 16.5 14.635 16.2275C15.1054 15.9878 15.4878 15.6054 15.7275 15.135C16 14.6002 16 13.9001 16 12.5V5.5C16 4.09987 16 3.3998 15.7275 2.86502C15.4878 2.39462 15.1054 2.01217 14.635 1.77248C14.1002 1.5 13.4001 1.5 12 1.5H6.83333C6.05836 1.5 5.67087 1.5 5.35295 1.58519C4.49022 1.81635 3.81635 2.49022 3.58518 3.35295C3.5 3.67087 3.5 4.05836 3.5 4.83333M8.5 5.66667L11.8333 9M11.8333 9L8.5 12.3333M11.8333 9H1" stroke="white" stroke-width="1.66667" stroke-linecap="round" stroke-linejoin="round"/>
</svg>
