<svg width="356" height="89" viewBox="0 0 356 89" fill="none" xmlns="http://www.w3.org/2000/svg">
<path d="M95.04 54.42C92.7867 54.42 90.74 53.8267 88.9 52.64C87.0733 51.4533 85.6133 49.7333 84.52 47.48C83.44 45.2267 82.9 42.5 82.9 39.3C82.9 36.0867 83.4533 33.3533 84.56 31.1C85.68 28.8467 87.1867 27.12 89.08 25.92C90.9867 24.72 93.12 24.12 95.48 24.12C97.4133 24.12 99.0467 24.4467 100.38 25.1C101.727 25.7533 102.82 26.5933 103.66 27.62C104.513 28.6467 105.133 29.7333 105.52 30.88C105.907 32.0133 106.1 33.08 106.1 34.08C106.1 34.12 106.1 34.16 106.1 34.2C106.1 34.24 106.1 34.28 106.1 34.32H101.88C101.88 34.28 101.88 34.24 101.88 34.2C101.88 34.16 101.88 34.12 101.88 34.08C101.88 33.3333 101.747 32.5933 101.48 31.86C101.227 31.1133 100.833 30.44 100.3 29.84C99.78 29.24 99.1133 28.76 98.3 28.4C97.5 28.04 96.56 27.86 95.48 27.86C94.0133 27.86 92.66 28.2667 91.42 29.08C90.18 29.88 89.18 31.1267 88.42 32.82C87.66 34.5 87.28 36.66 87.28 39.3C87.28 41.3133 87.4867 43.0467 87.9 44.5C88.3267 45.94 88.9067 47.12 89.64 48.04C90.3733 48.9467 91.22 49.62 92.18 50.06C93.14 50.5 94.1667 50.72 95.26 50.72C96.7267 50.72 97.9333 50.4733 98.88 49.98C99.84 49.4733 100.58 48.8467 101.1 48.1C101.633 47.3533 101.973 46.6133 102.12 45.88V43.18H95.36V39.78H106.02V54H103.24L102.92 50.72C102.813 50.9467 102.593 51.26 102.26 51.66C101.927 52.06 101.447 52.4733 100.82 52.9C100.207 53.3267 99.42 53.6867 98.46 53.98C97.5133 54.2733 96.3733 54.42 95.04 54.42ZM115.233 22.74V54H110.953V22.74H115.233ZM130.303 54.4C128.116 54.4 126.183 53.9267 124.503 52.98C122.836 52.0333 121.53 50.7333 120.583 49.08C119.65 47.4133 119.183 45.5067 119.183 43.36C119.183 41.2267 119.65 39.34 120.583 37.7C121.53 36.0467 122.836 34.76 124.503 33.84C126.183 32.9067 128.116 32.44 130.303 32.44C132.49 32.44 134.416 32.9067 136.083 33.84C137.763 34.76 139.07 36.0467 140.003 37.7C140.95 39.34 141.423 41.2267 141.423 43.36C141.423 45.5067 140.95 47.4133 140.003 49.08C139.07 50.7333 137.763 52.0333 136.083 52.98C134.416 53.9267 132.49 54.4 130.303 54.4ZM130.303 50.68C131.636 50.68 132.81 50.38 133.823 49.78C134.836 49.18 135.63 48.3333 136.203 47.24C136.776 46.1333 137.063 44.84 137.063 43.36C137.063 41.8933 136.776 40.62 136.203 39.54C135.63 38.46 134.836 37.6267 133.823 37.04C132.81 36.4533 131.636 36.16 130.303 36.16C128.983 36.16 127.81 36.4533 126.783 37.04C125.77 37.6267 124.976 38.46 124.403 39.54C123.83 40.62 123.543 41.8933 123.543 43.36C123.543 44.84 123.83 46.1333 124.403 47.24C124.976 48.3333 125.77 49.18 126.783 49.78C127.81 50.38 128.983 50.68 130.303 50.68ZM156.434 54.42C154.781 54.42 153.247 54.0067 151.834 53.18C150.421 52.34 149.274 51.1933 148.394 49.74C147.527 48.2867 147.094 46.64 147.094 44.8C147.094 44.7467 147.094 44.7067 147.094 44.68C147.094 44.64 147.094 44.6 147.094 44.56L149.614 44.5C149.614 44.5267 149.614 44.56 149.614 44.6C149.614 44.6267 149.614 44.66 149.614 44.7C149.614 45.7933 149.894 46.78 150.454 47.66C151.027 48.5267 151.767 49.2133 152.674 49.72C153.581 50.2267 154.554 50.48 155.594 50.48C157.301 50.48 158.734 49.9 159.894 48.74C161.067 47.5667 161.654 45.7667 161.654 43.34C161.654 40.9 161.074 39.1067 159.914 37.96C158.754 36.8 157.314 36.22 155.594 36.22C154.554 36.22 153.581 36.4733 152.674 36.98C151.767 37.4733 151.027 38.1533 150.454 39.02C149.894 39.8733 149.614 40.8533 149.614 41.96L147.094 41.86C147.094 40.0067 147.527 38.3733 148.394 36.96C149.274 35.5333 150.421 34.42 151.834 33.62C153.247 32.82 154.781 32.42 156.434 32.42C158.154 32.42 159.747 32.8467 161.214 33.7C162.681 34.54 163.861 35.7733 164.754 37.4C165.661 39.0267 166.114 41.0067 166.114 43.34C166.114 45.7267 165.674 47.7467 164.794 49.4C163.914 51.0533 162.741 52.3067 161.274 53.16C159.807 54 158.194 54.42 156.434 54.42ZM145.254 54V22.74H149.614V54H145.254ZM177.278 54.42C175.678 54.42 174.271 54.1667 173.058 53.66C171.858 53.1533 170.925 52.4267 170.258 51.48C169.591 50.5333 169.258 49.3933 169.258 48.06C169.258 46.6333 169.631 45.4533 170.378 44.52C171.138 43.5867 172.178 42.8667 173.498 42.36C174.831 41.84 176.345 41.5 178.038 41.34C180.558 41.0867 182.331 40.84 183.358 40.6C184.398 40.36 184.918 39.9667 184.918 39.42C184.918 39.4067 184.918 39.3933 184.918 39.38C184.918 38.3 184.458 37.48 183.538 36.92C182.618 36.36 181.305 36.08 179.598 36.08C177.798 36.08 176.405 36.4 175.418 37.04C174.445 37.6667 173.958 38.6667 173.958 40.04H169.698C169.698 38.4133 170.118 37.0333 170.958 35.9C171.811 34.7667 172.985 33.9067 174.478 33.32C175.971 32.72 177.685 32.42 179.618 32.42C181.391 32.42 183.005 32.6933 184.458 33.24C185.925 33.7733 187.091 34.5733 187.958 35.64C188.825 36.7067 189.258 38.0333 189.258 39.62C189.258 39.9 189.258 40.18 189.258 40.46C189.258 40.7267 189.258 41 189.258 41.28V49.76C189.258 50.2533 189.278 50.7333 189.318 51.2C189.358 51.6533 189.431 52.06 189.538 52.42C189.658 52.8333 189.798 53.1733 189.958 53.44C190.131 53.7067 190.271 53.8933 190.378 54H186.058C185.978 53.92 185.858 53.7533 185.698 53.5C185.551 53.2333 185.418 52.9267 185.298 52.58C185.178 52.2467 185.085 51.8667 185.018 51.44C184.965 51 184.938 50.5267 184.938 50.02L185.738 50.58C185.338 51.3533 184.731 52.0267 183.918 52.6C183.118 53.1733 182.151 53.62 181.018 53.94C179.898 54.26 178.651 54.42 177.278 54.42ZM178.178 50.82C179.418 50.82 180.545 50.6267 181.558 50.24C182.585 49.84 183.405 49.24 184.018 48.44C184.631 47.6267 184.938 46.6067 184.938 45.38V41.86L185.958 43.2C185.105 43.5333 184.058 43.8067 182.818 44.02C181.591 44.22 180.325 44.3867 179.018 44.52C177.218 44.68 175.865 44.9933 174.958 45.46C174.051 45.9133 173.598 46.6733 173.598 47.74C173.598 48.7667 173.971 49.54 174.718 50.06C175.478 50.5667 176.631 50.82 178.178 50.82ZM198.108 22.74V54H193.828V22.74H198.108ZM202.858 54V24.5H207.138V54H202.858ZM211.622 54V24.5H219.722C221.682 24.5 223.455 24.8467 225.042 25.54C226.629 26.2333 227.982 27.22 229.102 28.5C230.235 29.78 231.109 31.3267 231.722 33.14C232.335 34.9533 232.642 36.98 232.642 39.22C232.642 41.4733 232.335 43.5067 231.722 45.32C231.109 47.1333 230.235 48.6867 229.102 49.98C227.982 51.2733 226.629 52.2667 225.042 52.96C223.455 53.6533 221.682 54 219.722 54H211.622ZM215.982 52.68L214.022 50.4H219.202C220.935 50.4 222.482 49.9467 223.842 49.04C225.215 48.1333 226.289 46.8467 227.062 45.18C227.835 43.5 228.222 41.5133 228.222 39.22C228.222 36.9133 227.835 34.9333 227.062 33.28C226.289 31.6133 225.215 30.3333 223.842 29.44C222.482 28.5467 220.935 28.1 219.202 28.1H214.022L215.982 25.82V52.68Z" fill="#0033A0"/>
<path d="M249.587 54H245.247V24.5H254.127C256.394 24.5 258.294 24.9267 259.827 25.78C261.374 26.6333 262.534 27.7867 263.307 29.24C264.094 30.68 264.487 32.2933 264.487 34.08C264.487 35.8667 264.087 37.5133 263.287 39.02C262.5 40.5133 261.334 41.7133 259.787 42.62C258.24 43.5267 256.354 43.98 254.127 43.98H249.587V54ZM249.587 42.5L247.627 40.38H253.627C255.04 40.38 256.227 40.1267 257.187 39.62C258.16 39.1 258.894 38.3667 259.387 37.42C259.88 36.4733 260.127 35.36 260.127 34.08C260.127 32.8 259.887 31.7133 259.407 30.82C258.927 29.9267 258.207 29.2533 257.247 28.8C256.287 28.3333 255.08 28.1 253.627 28.1H247.627L249.587 25.82V42.5ZM274.286 54.42C272.686 54.42 271.279 54.1667 270.066 53.66C268.866 53.1533 267.933 52.4267 267.266 51.48C266.599 50.5333 266.266 49.3933 266.266 48.06C266.266 46.6333 266.639 45.4533 267.386 44.52C268.146 43.5867 269.186 42.8667 270.506 42.36C271.839 41.84 273.353 41.5 275.046 41.34C277.566 41.0867 279.339 40.84 280.366 40.6C281.406 40.36 281.926 39.9667 281.926 39.42C281.926 39.4067 281.926 39.3933 281.926 39.38C281.926 38.3 281.466 37.48 280.546 36.92C279.626 36.36 278.313 36.08 276.606 36.08C274.806 36.08 273.413 36.4 272.426 37.04C271.453 37.6667 270.966 38.6667 270.966 40.04H266.706C266.706 38.4133 267.126 37.0333 267.966 35.9C268.819 34.7667 269.993 33.9067 271.486 33.32C272.979 32.72 274.693 32.42 276.626 32.42C278.399 32.42 280.013 32.6933 281.466 33.24C282.933 33.7733 284.099 34.5733 284.966 35.64C285.833 36.7067 286.266 38.0333 286.266 39.62C286.266 39.9 286.266 40.18 286.266 40.46C286.266 40.7267 286.266 41 286.266 41.28V49.76C286.266 50.2533 286.286 50.7333 286.326 51.2C286.366 51.6533 286.439 52.06 286.546 52.42C286.666 52.8333 286.806 53.1733 286.966 53.44C287.139 53.7067 287.279 53.8933 287.386 54H283.066C282.986 53.92 282.866 53.7533 282.706 53.5C282.559 53.2333 282.426 52.9267 282.306 52.58C282.186 52.2467 282.093 51.8667 282.026 51.44C281.973 51 281.946 50.5267 281.946 50.02L282.746 50.58C282.346 51.3533 281.739 52.0267 280.926 52.6C280.126 53.1733 279.159 53.62 278.026 53.94C276.906 54.26 275.659 54.42 274.286 54.42ZM275.186 50.82C276.426 50.82 277.553 50.6267 278.566 50.24C279.593 49.84 280.413 49.24 281.026 48.44C281.639 47.6267 281.946 46.6067 281.946 45.38V41.86L282.966 43.2C282.113 43.5333 281.066 43.8067 279.826 44.02C278.599 44.22 277.333 44.3867 276.026 44.52C274.226 44.68 272.873 44.9933 271.966 45.46C271.059 45.9133 270.606 46.6733 270.606 47.74C270.606 48.7667 270.979 49.54 271.726 50.06C272.486 50.5667 273.639 50.82 275.186 50.82ZM298.895 54.42C297.629 54.42 296.435 54.28 295.315 54C294.195 53.72 293.209 53.3133 292.355 52.78C291.515 52.2333 290.855 51.56 290.375 50.76C289.909 49.96 289.675 49.0333 289.675 47.98C289.675 47.8867 289.675 47.7933 289.675 47.7C289.675 47.5933 289.675 47.5067 289.675 47.44H293.995C293.995 47.5067 293.995 47.5667 293.995 47.62C293.995 47.6733 293.995 47.7467 293.995 47.84C293.995 48.8133 294.442 49.5533 295.335 50.06C296.242 50.5533 297.469 50.8 299.015 50.8C299.922 50.8 300.749 50.7067 301.495 50.52C302.255 50.3333 302.855 50.0467 303.295 49.66C303.749 49.2733 303.975 48.78 303.975 48.18C303.975 47.2067 303.495 46.5133 302.535 46.1C301.589 45.6867 300.149 45.32 298.215 45C297.162 44.8133 296.142 44.5733 295.155 44.28C294.182 43.9867 293.302 43.6 292.515 43.12C291.742 42.6267 291.122 42.02 290.655 41.3C290.202 40.5667 289.975 39.6867 289.975 38.66C289.975 37.3267 290.375 36.1933 291.175 35.26C291.975 34.3267 293.055 33.62 294.415 33.14C295.775 32.66 297.275 32.42 298.915 32.42C300.502 32.42 301.969 32.68 303.315 33.2C304.675 33.7067 305.769 34.4467 306.595 35.42C307.422 36.38 307.835 37.56 307.835 38.96C307.835 39.0133 307.835 39.0733 307.835 39.14C307.835 39.2067 307.835 39.2667 307.835 39.32H303.535C303.535 39.2667 303.535 39.22 303.535 39.18C303.535 39.14 303.535 39.0933 303.535 39.04C303.535 38.3467 303.315 37.78 302.875 37.34C302.435 36.9 301.862 36.5733 301.155 36.36C300.462 36.1333 299.722 36.02 298.935 36.02C298.215 36.02 297.489 36.1 296.755 36.26C296.035 36.4067 295.435 36.6667 294.955 37.04C294.475 37.4 294.235 37.8933 294.235 38.52C294.235 39.16 294.469 39.6733 294.935 40.06C295.402 40.4333 296.062 40.7467 296.915 41C297.769 41.24 298.762 41.46 299.895 41.66C300.935 41.8467 301.949 42.0867 302.935 42.38C303.922 42.66 304.809 43.0333 305.595 43.5C306.395 43.9667 307.029 44.5667 307.495 45.3C307.975 46.0333 308.215 46.9333 308.215 48C308.215 49.1067 307.962 50.06 307.455 50.86C306.949 51.66 306.255 52.3267 305.375 52.86C304.509 53.38 303.515 53.7667 302.395 54.02C301.289 54.2867 300.122 54.42 298.895 54.42ZM320.356 54.42C319.09 54.42 317.896 54.28 316.776 54C315.656 53.72 314.67 53.3133 313.816 52.78C312.976 52.2333 312.316 51.56 311.836 50.76C311.37 49.96 311.136 49.0333 311.136 47.98C311.136 47.8867 311.136 47.7933 311.136 47.7C311.136 47.5933 311.136 47.5067 311.136 47.44H315.456C315.456 47.5067 315.456 47.5667 315.456 47.62C315.456 47.6733 315.456 47.7467 315.456 47.84C315.456 48.8133 315.903 49.5533 316.796 50.06C317.703 50.5533 318.93 50.8 320.476 50.8C321.383 50.8 322.21 50.7067 322.956 50.52C323.716 50.3333 324.316 50.0467 324.756 49.66C325.21 49.2733 325.436 48.78 325.436 48.18C325.436 47.2067 324.956 46.5133 323.996 46.1C323.05 45.6867 321.61 45.32 319.676 45C318.623 44.8133 317.603 44.5733 316.616 44.28C315.643 43.9867 314.763 43.6 313.976 43.12C313.203 42.6267 312.583 42.02 312.116 41.3C311.663 40.5667 311.436 39.6867 311.436 38.66C311.436 37.3267 311.836 36.1933 312.636 35.26C313.436 34.3267 314.516 33.62 315.876 33.14C317.236 32.66 318.736 32.42 320.376 32.42C321.963 32.42 323.43 32.68 324.776 33.2C326.136 33.7067 327.23 34.4467 328.056 35.42C328.883 36.38 329.296 37.56 329.296 38.96C329.296 39.0133 329.296 39.0733 329.296 39.14C329.296 39.2067 329.296 39.2667 329.296 39.32H324.996C324.996 39.2667 324.996 39.22 324.996 39.18C324.996 39.14 324.996 39.0933 324.996 39.04C324.996 38.3467 324.776 37.78 324.336 37.34C323.896 36.9 323.323 36.5733 322.616 36.36C321.923 36.1333 321.183 36.02 320.396 36.02C319.676 36.02 318.95 36.1 318.216 36.26C317.496 36.4067 316.896 36.6667 316.416 37.04C315.936 37.4 315.696 37.8933 315.696 38.52C315.696 39.16 315.93 39.6733 316.396 40.06C316.863 40.4333 317.523 40.7467 318.376 41C319.23 41.24 320.223 41.46 321.356 41.66C322.396 41.8467 323.41 42.0867 324.396 42.38C325.383 42.66 326.27 43.0333 327.056 43.5C327.856 43.9667 328.49 44.5667 328.956 45.3C329.436 46.0333 329.676 46.9333 329.676 48C329.676 49.1067 329.423 50.06 328.916 50.86C328.41 51.66 327.716 52.3267 326.836 52.86C325.97 53.38 324.976 53.7667 323.856 54.02C322.75 54.2867 321.583 54.42 320.356 54.42Z" fill="#FF671F"/>
<mask id="mask0_54_7" style="mask-type:alpha" maskUnits="userSpaceOnUse" x="0" y="0" width="75" height="75">
<rect width="75" height="75" fill="#D9D9D9"/>
</mask>
<g mask="url(#mask0_54_7)">
<path d="M37.5 65.625C33.6057 65.625 29.9479 64.8849 26.5266 63.4047C23.1052 61.924 20.1185 59.9177 17.5664 57.3859C15.0143 54.8536 13.0109 51.874 11.5562 48.4469C10.1021 45.0193 9.375 41.3383 9.375 37.4039C9.375 33.5096 10.1021 29.8547 11.5562 26.4391C13.0109 23.024 15.0143 20.0503 17.5664 17.518C20.1185 14.9862 23.1052 12.9961 26.5266 11.5477C29.9479 10.0992 33.6057 9.375 37.5 9.375C41.3943 9.375 45.0521 10.0992 48.4734 11.5477C51.8948 12.9961 54.8815 14.9862 57.4336 17.518C59.9857 20.0503 61.9891 23.024 63.4437 26.4391C64.8979 29.8547 65.625 33.5096 65.625 37.4039C65.625 41.3383 64.8979 45.0193 63.4437 48.4469C61.9891 51.874 59.9857 54.8536 57.4336 57.3859C54.8815 59.9177 51.8948 61.924 48.4734 63.4047C45.0521 64.8849 41.3943 65.625 37.5 65.625ZM37.5 63.3773C39.5635 61.0617 41.2372 58.663 42.5211 56.1812C43.805 53.699 44.8576 50.8313 45.6789 47.5781H29.3391C30.1885 50.9438 31.2552 53.8664 32.5391 56.3461C33.8229 58.8263 35.4766 61.1701 37.5 63.3773ZM34.225 63.0406C32.6021 61.2219 31.1318 58.9362 29.8141 56.1836C28.4958 53.4315 27.5042 50.563 26.8391 47.5781H13.6781C15.6974 51.9573 18.4297 55.4318 21.875 58.0016C25.3203 60.5719 29.437 62.2516 34.225 63.0406ZM40.8531 63.0227C45.2844 62.3857 49.3078 60.7091 52.9234 57.993C56.5396 55.2763 59.3391 51.8047 61.3219 47.5781H48.1789C47.3018 50.6313 46.2172 53.5138 44.925 56.2258C43.6328 58.9383 42.2755 61.2039 40.8531 63.0227ZM12.957 45.1742H26.4C26.1635 43.7279 26.0023 42.3646 25.9164 41.0844C25.8305 39.8047 25.7875 38.5779 25.7875 37.4039C25.7875 36.182 25.8336 34.9531 25.9258 33.7172C26.018 32.4813 26.182 31.1781 26.418 29.8078H12.957C12.5523 30.9776 12.2547 32.1974 12.0641 33.4672C11.874 34.7375 11.7789 36.0497 11.7789 37.4039C11.7789 38.7982 11.874 40.1393 12.0641 41.4273C12.2547 42.7154 12.5523 43.9643 12.957 45.1742ZM28.8398 45.1742H46.1781C46.4266 43.6398 46.5969 42.2747 46.6891 41.0789C46.7807 39.8831 46.8266 38.6581 46.8266 37.4039C46.8266 36.2018 46.7807 35.019 46.6891 33.8555C46.5969 32.6914 46.4266 31.3422 46.1781 29.8078H28.8398C28.5914 31.3422 28.4214 32.6914 28.3297 33.8555C28.2375 35.019 28.1914 36.2018 28.1914 37.4039C28.1914 38.6581 28.2375 39.8831 28.3297 41.0789C28.4214 42.2747 28.5914 43.6398 28.8398 45.1742ZM48.582 45.1742H62.043C62.4477 43.9643 62.7453 42.7154 62.9359 41.4273C63.126 40.1393 63.2211 38.7982 63.2211 37.4039C63.2211 36.0497 63.126 34.7375 62.9359 33.4672C62.7453 32.1974 62.4477 30.9776 62.043 29.8078H48.6602C48.8565 31.4302 49.0005 32.8435 49.0922 34.0477C49.1844 35.2513 49.2305 36.3701 49.2305 37.4039C49.2305 38.5898 49.1815 39.8008 49.0836 41.0367C48.9852 42.2727 48.818 43.6518 48.582 45.1742ZM48.1609 27.4039H61.3219C59.363 23.0086 56.6258 19.4828 53.1102 16.8266C49.5945 14.1703 45.4828 12.5279 40.775 11.8992C42.3979 13.9065 43.8453 16.2401 45.1172 18.9C46.3891 21.5604 47.4036 24.3951 48.1609 27.4039ZM29.3391 27.4039H45.757C44.944 24.2831 43.8503 21.4034 42.4758 18.7648C41.1018 16.1268 39.4432 13.7581 37.5 11.6586C35.6328 13.5055 34.0562 15.675 32.7703 18.1672C31.4844 20.6589 30.3406 23.7378 29.3391 27.4039ZM13.6781 27.4039H26.857C27.5904 24.431 28.5799 21.6276 29.8258 18.9937C31.0716 16.3594 32.512 14.0005 34.1469 11.9172C29.4391 12.5859 25.3464 14.2326 21.8688 16.857C18.3911 19.481 15.6609 22.9966 13.6781 27.4039Z" fill="#0033A0"/>
</g>
<mask id="mask1_54_7" style="mask-type:alpha" maskUnits="userSpaceOnUse" x="0" y="26" width="49" height="49">
<rect y="26" width="48.7593" height="48.7593" fill="#D9D9D9"/>
</mask>
<g mask="url(#mask1_54_7)">
<path d="M9.39632 70.696C8.85455 70.696 8.36357 70.4759 7.92338 70.0357C7.48319 69.5955 7.2631 69.1046 7.2631 68.5628V63.2297C7.2631 60.1823 8.2112 57.4904 10.1074 55.154C12.0036 52.8176 14.4415 51.3277 17.4213 50.6844C16.0669 51.6325 15.0172 52.8261 14.2722 54.2652C13.5273 55.7042 13.1548 57.2533 13.1548 58.9125V68.5628C13.1548 68.9353 13.2056 69.3077 13.3072 69.6802C13.4088 70.0527 13.5781 70.3913 13.8151 70.696H9.39632ZM16.8626 70.696C16.287 70.696 15.7875 70.4844 15.3643 70.0611C14.941 69.6379 14.7294 69.1384 14.7294 68.5628V58.9125C14.7294 56.5423 15.5674 54.5276 17.2435 52.8684C18.9196 51.2092 20.9428 50.3796 23.313 50.3796H32.9125C35.2828 50.3796 37.2975 51.2092 38.9566 52.8684C40.6158 54.5276 41.4454 56.5423 41.4454 58.9125V62.1631C41.4454 64.5334 40.6158 66.5481 38.9566 68.2073C37.2975 69.8664 35.2828 70.696 32.9125 70.696H16.8626ZM24.3796 46.1132C22.1448 46.1132 20.2486 45.3344 18.6911 43.7768C17.1335 42.2192 16.3547 40.323 16.3547 38.0882C16.3547 35.8534 17.1335 33.9572 18.6911 32.3997C20.2486 30.8421 22.1448 30.0633 24.3796 30.0633C26.6144 30.0633 28.5106 30.8421 30.0682 32.3997C31.6258 33.9572 32.4046 35.8534 32.4046 38.0882C32.4046 40.323 31.6258 42.2192 30.0682 43.7768C28.5106 45.3344 26.6144 46.1132 24.3796 46.1132Z" fill="#FF671F"/>
</g>
</svg>
