<svg width="141" height="135" viewBox="0 0 141 135" fill="none" xmlns="http://www.w3.org/2000/svg">
<path d="M72.5686 135C63.2224 135 54.4436 133.224 46.2324 129.671C38.0211 126.118 30.853 121.302 24.728 115.226C18.603 109.149 13.7949 101.998 10.3036 93.7725C6.8136 85.5462 5.0686 76.7119 5.0686 67.2694C5.0686 57.9231 6.8136 49.1512 10.3036 40.9537C13.7949 32.7575 18.603 25.6206 24.728 19.5431C30.853 13.4669 38.0211 8.69063 46.2324 5.21438C54.4436 1.73812 63.2224 0 72.5686 0C81.9149 0 90.6936 1.73812 98.9049 5.21438C107.116 8.69063 114.284 13.4669 120.409 19.5431C126.534 25.6206 131.342 32.7575 134.834 40.9537C138.324 49.1512 140.069 57.9231 140.069 67.2694C140.069 76.7119 138.324 85.5462 134.834 93.7725C131.342 101.998 126.534 109.149 120.409 115.226C114.284 121.302 107.116 126.118 98.9049 129.671C90.6936 133.224 81.9149 135 72.5686 135ZM72.5686 129.606C77.5211 124.048 81.538 118.291 84.6192 112.335C87.7005 106.377 90.2267 99.495 92.198 91.6875H52.9824C55.0211 99.765 57.5811 106.779 60.6624 112.731C63.7436 118.683 67.7124 124.308 72.5686 129.606ZM64.7086 128.798C60.8136 124.433 57.2849 118.947 54.1224 112.341C50.9586 105.736 48.5786 98.8512 46.9824 91.6875H15.3961C20.2424 102.198 26.7999 110.536 35.0686 116.704C43.3374 122.873 53.2174 126.904 64.7086 128.798ZM80.6161 128.754C91.2511 127.226 100.907 123.202 109.585 116.683C118.264 110.163 124.982 101.831 129.741 91.6875H98.198C96.093 99.015 93.4899 105.933 90.3886 112.442C87.2873 118.952 84.0299 124.389 80.6161 128.754ZM13.6655 85.9181H45.9286C45.3611 82.4469 44.9742 79.175 44.768 76.1025C44.5617 73.0312 44.4586 70.0869 44.4586 67.2694C44.4586 64.3369 44.5692 61.3875 44.7905 58.4213C45.0117 55.455 45.4055 52.3275 45.9717 49.0387H13.6655C12.6942 51.8462 11.9799 54.7738 11.5224 57.8213C11.0661 60.87 10.838 64.0194 10.838 67.2694C10.838 70.6156 11.0661 73.8344 11.5224 76.9256C11.9799 80.0169 12.6942 83.0144 13.6655 85.9181ZM51.7842 85.9181H93.3961C93.9924 82.2356 94.4011 78.9594 94.6224 76.0894C94.8424 73.2194 94.9524 70.2794 94.9524 67.2694C94.9524 64.3844 94.8424 61.5456 94.6224 58.7531C94.4011 55.9594 93.9924 52.7212 93.3961 49.0387H51.7842C51.188 52.7212 50.7799 55.9594 50.5599 58.7531C50.3386 61.5456 50.228 64.3844 50.228 67.2694C50.228 70.2794 50.3386 73.2194 50.5599 76.0894C50.7799 78.9594 51.188 82.2356 51.7842 85.9181ZM99.1655 85.9181H131.472C132.443 83.0144 133.157 80.0169 133.615 76.9256C134.071 73.8344 134.299 70.6156 134.299 67.2694C134.299 64.0194 134.071 60.87 133.615 57.8213C133.157 54.7738 132.443 51.8462 131.472 49.0387H99.353C99.8242 52.9325 100.17 56.3244 100.39 59.2144C100.611 62.1031 100.722 64.7881 100.722 67.2694C100.722 70.1156 100.604 73.0219 100.369 75.9881C100.133 78.9544 99.7317 82.2644 99.1655 85.9181ZM98.1549 43.2694H129.741C125.04 32.7206 118.47 24.2588 110.033 17.8838C101.595 11.5088 91.7273 7.56687 80.4286 6.05812C84.3236 10.8756 87.7974 16.4762 90.8499 22.86C93.9024 29.245 96.3374 36.0481 98.1549 43.2694ZM52.9824 43.2694H92.3855C90.4342 35.7794 87.8092 28.8681 84.5105 22.5356C81.213 16.2044 77.2324 10.5194 72.5686 5.48062C68.0874 9.91312 64.3036 15.12 61.2174 21.1012C58.1311 27.0812 55.3861 34.4706 52.9824 43.2694ZM15.3961 43.2694H47.0255C48.7855 36.1344 51.1605 29.4062 54.1505 23.085C57.1405 16.7625 60.5974 11.1012 64.5211 6.10125C53.2224 7.70625 43.3999 11.6581 35.0536 17.9569C26.7074 24.2544 20.1549 32.6919 15.3961 43.2694Z" fill="#0033A0"/>
<path d="M5.11972 131.139C3.81948 131.139 2.64113 130.611 1.58468 129.554C0.528225 128.498 0 127.319 0 126.019V113.22C0 105.906 2.27543 99.4454 6.8263 93.8381C11.3772 88.2307 17.2283 84.6551 24.3796 83.111C21.129 85.3865 18.6098 88.2511 16.8219 91.7048C15.0341 95.1586 14.1402 98.8765 14.1402 102.859V126.019C14.1402 126.913 14.2621 127.807 14.5059 128.701C14.7497 129.595 15.156 130.408 15.7249 131.139H5.11972ZM23.0388 131.139C21.6572 131.139 20.4586 130.631 19.4428 129.615C18.4269 128.599 17.919 127.401 17.919 126.019V102.859C17.919 97.1699 19.9304 92.3347 23.953 88.3526C27.9756 84.3706 32.8312 82.3796 38.5198 82.3796H61.5586C67.2472 82.3796 72.0825 84.3706 76.0645 88.3526C80.0465 92.3347 82.0375 97.1699 82.0375 102.859V110.66C82.0375 116.349 80.0465 121.184 76.0645 125.166C72.0825 129.148 67.2472 131.139 61.5586 131.139H23.0388ZM41.0797 72.1402C35.7162 72.1402 31.1653 70.2711 27.4271 66.5329C23.6889 62.7947 21.8198 58.2438 21.8198 52.8803C21.8198 47.5168 23.6889 42.9659 27.4271 39.2277C31.1653 35.4895 35.7162 33.6204 41.0797 33.6204C46.4432 33.6204 50.9941 35.4895 54.7323 39.2277C58.4705 42.9659 60.3396 47.5168 60.3396 52.8803C60.3396 58.2438 58.4705 62.7947 54.7323 66.5329C50.9941 70.2711 46.4432 72.1402 41.0797 72.1402Z" fill="#FF671F"/>
</svg>
