<svg width="11" height="7" viewBox="0 0 11 7" fill="none" xmlns="http://www.w3.org/2000/svg">
<path d="M6.26197 6.28705C6.21259 6.34089 6.15256 6.38388 6.08569 6.41329C6.01882 6.4427 5.94656 6.45789 5.87351 6.45789C5.80045 6.45789 5.7282 6.4427 5.66132 6.41329C5.59445 6.38388 5.53442 6.34089 5.48504 6.28705L0.885687 1.26919C0.815861 1.1939 0.769547 1.09986 0.752436 0.998608C0.735323 0.89736 0.748158 0.793317 0.789362 0.699263C0.830567 0.605208 0.898347 0.525238 0.984377 0.469175C1.07041 0.413113 1.17094 0.383399 1.27362 0.383686L10.4723 0.383686C10.5747 0.383574 10.6749 0.41327 10.7606 0.46915C10.8464 0.52503 10.9141 0.604675 10.9553 0.698359C10.9966 0.792043 11.0096 0.895711 10.9929 0.996706C10.9763 1.0977 10.9305 1.19165 10.8613 1.26708L6.26197 6.28705Z" fill="#017DC0"/>
</svg>
