<svg width="31" height="40" viewBox="0 0 31 40" fill="none" xmlns="http://www.w3.org/2000/svg">
<g clip-path="url(#clip0_128_1283)">
<path d="M11.1938 25.6296L11.1923 34.2093C11.1923 37.4063 8.68755 40 5.5969 40C2.50626 40 0 37.4063 0 34.2093V25.8836C0 19.3595 5.12909 14.0498 11.4346 14.0498H20.3461C20.6268 14.0498 20.9013 14.0704 21.1698 14.1117C15.5606 14.7403 11.1953 19.658 11.1953 25.628L11.1938 25.6296Z" fill="#00B5E8"/>
<g style="mix-blend-mode:overlay" opacity="0.4">
<path d="M15.1312 15.2593C12.0896 17.5387 10.1171 21.2103 10.0282 25.3375L10.0251 25.3438V25.6311L10.022 34.2077C10.022 36.2331 8.74589 37.9554 6.98046 38.5586C8.25814 37.7538 9.11401 36.2982 9.11401 34.6394V26.0629L9.11707 25.7756L9.12014 25.7692C9.1999 22.0786 10.4055 18.7515 12.8335 16.4593C13.1219 16.1863 12.9347 15.6895 12.5452 15.6895H10.5251C9.17383 15.6895 7.88235 15.9609 6.69824 16.4562C8.11549 15.6895 9.726 15.2561 11.4316 15.2561H15.1296L15.1312 15.2593Z" fill="#1F1E21"/>
</g>
<g style="mix-blend-mode:overlay">
<path d="M20.9904 14.1133C15.3812 14.7419 11.016 19.6596 11.016 25.6296L11.0144 34.2093C11.0144 37.4063 8.50972 40 5.41908 40C5.32398 40 5.22889 39.9985 5.13379 39.9937C8.1324 39.8524 10.5221 37.2888 10.5221 34.1506V25.4852L10.5252 25.4836C10.5252 19.8881 14.3214 15.207 19.3937 14.053H20.1698C20.4505 14.053 20.7251 14.0736 20.9935 14.1149L20.9904 14.1133Z" fill="white"/>
</g>
<path d="M25.94 19.8405C25.94 22.293 24.4676 24.3883 22.3877 25.2328C21.7972 25.4741 21.1561 25.6122 20.4889 25.6296H11.1924C11.1924 19.6595 15.5592 14.7419 21.1668 14.1133C21.5395 14.1704 21.9 14.2641 22.2466 14.3942C22.2926 14.4117 22.3417 14.4308 22.3877 14.4498C24.4676 15.2943 25.94 17.3912 25.94 19.8421V19.8405Z" fill="#017DC0"/>
<path opacity="0.3" d="M22.2481 14.3942C15.8198 14.6943 12.2169 19.3373 12.2169 25.6296H11.1938C11.1938 19.6595 15.5606 14.7419 21.1683 14.1133C21.541 14.1704 21.9014 14.2641 22.2481 14.3942Z" fill="#1F1E21"/>
<path d="M18.8966 0.019043C8.38385 0.482553 0 9.44958 0 20.4421V11.8513C0 5.31767 5.11988 0.019043 11.4331 0.019043H18.8951H18.8966Z" fill="#017DC0"/>
<path d="M30.9999 5.73355C31.0413 8.96702 28.5197 11.6005 25.4061 11.6005H11.1907C6.79935 11.6909 2.98321 14.2529 0.989244 17.9928C0.70242 18.5293 0.455475 19.0881 0.24841 19.669C0.231538 19.7151 0.214666 19.7611 0.199328 19.8071C0.199328 19.8071 0.199328 19.8103 0.199328 19.8119C0.182456 19.8595 0.165584 19.9103 0.148712 19.9595C0.114968 20.0595 0.0827574 20.1643 0.0505472 20.2738L0.00146505 20.4437C-6.87639e-05 9.44957 8.38378 0.482553 18.8966 0.019043H25.3217C28.397 0.019043 30.9601 2.55089 30.9999 5.73355Z" fill="#00B5E8"/>
<g style="mix-blend-mode:overlay">
<path d="M19.8215 0.019043C10.2167 0.442869 1.98316 7.88126 0.762239 18.4404C0.475415 18.9769 0.455475 19.0881 0.24841 19.669C0.231538 19.7151 0.214666 19.7611 0.199328 19.8071C0.199328 19.8071 0.199328 19.8103 0.199328 19.8119C0.182456 19.8595 0.165584 19.9087 0.148712 19.9595C0.114968 20.0595 0.0827574 20.1643 0.0505472 20.2738C0.0336752 20.3294 0.0168032 20.3849 0.00146505 20.4437C-6.87641e-05 9.44957 8.38378 0.482553 18.8966 0.019043H19.8215Z" fill="white"/>
</g>
<path d="M18.8967 0.0190484H19.7526V0C19.4658 0 19.1805 0.00634946 18.8967 0.0190484Z" fill="#017DC0"/>
<g style="mix-blend-mode:overlay" opacity="0.4">
<path d="M29.8311 5.74945C29.8465 6.98442 29.394 8.14955 28.555 9.02895C28.0534 9.55595 27.4491 9.94009 26.7896 10.1655C27.0979 9.97184 27.3862 9.73532 27.647 9.4623C28.4844 8.5829 28.9384 7.41936 28.9231 6.1828C28.8924 3.68905 26.8678 1.6604 24.4121 1.6604H18.0115C15.7507 1.76358 13.5604 2.28424 11.5281 3.18427C13.8089 2.01915 16.3167 1.3461 18.918 1.22705H25.3186C27.7743 1.22705 29.7974 3.2557 29.8296 5.74945H29.8311Z" fill="#1F1E21"/>
</g>
<path opacity="0.3" d="M18.8966 0.019043C8.38385 0.482553 0 9.44958 0 20.4421V15.8546C0.797585 12.1497 2.56148 8.72733 5.15516 5.93356C7.9237 2.95091 11.4162 0.917491 15.2369 0.019043H18.8966Z" fill="#1F1E21"/>
</g>
<defs>
<clipPath id="clip0_128_1283">
<rect width="31" height="40" fill="white"/>
</clipPath>
</defs>
</svg>
