<svg width="22" height="22" viewBox="0 0 22 22" fill="none" xmlns="http://www.w3.org/2000/svg">
<path d="M11.282 21.5417C9.87519 21.5498 8.48193 21.267 7.18966 20.711C5.93728 20.1771 4.7984 19.4089 3.83423 18.4477C2.87306 17.4835 2.10487 16.3447 1.57093 15.0923C1.01494 13.8 0.732118 12.4068 0.740238 11C0.730403 9.59032 1.01327 8.19394 1.57093 6.89923C2.10635 5.65017 2.87442 4.51433 3.83423 3.55225C4.79842 2.59107 5.9373 1.82291 7.18966 1.28897C8.48194 0.733003 9.8752 0.450163 11.282 0.458253C12.6916 0.448478 14.088 0.731364 15.3827 1.28897C16.6317 1.82443 17.7676 2.59248 18.7297 3.55225C19.6895 4.51433 20.4576 5.65017 20.993 6.89923C21.5507 8.19394 21.8335 9.59032 21.8237 11C21.8318 12.4068 21.549 13.8 20.993 15.0923C20.4591 16.3447 19.6909 17.4835 18.7297 18.4477C17.7676 19.4075 16.6318 20.1756 15.3827 20.711C14.088 21.2686 12.6916 21.5515 11.282 21.5417ZM11.282 19.8551C11.8246 19.1412 12.303 18.3806 12.7114 17.5823C13.1133 16.782 13.4313 15.9422 13.6602 15.0765H8.91008C9.14626 15.9545 9.46645 16.8077 9.86621 17.6244C10.2613 18.414 10.7356 19.1615 11.282 19.8551ZM9.13356 19.5504C8.68385 18.8959 8.30002 18.1985 7.98768 17.4684C7.65125 16.6975 7.38693 15.8971 7.1981 15.0775H3.43365C3.99978 16.2052 4.80445 17.1962 5.79183 17.9818C6.76706 18.7603 7.91243 19.2974 9.13461 19.5493L9.13356 19.5504ZM13.4314 19.5504C14.6533 19.298 15.7983 18.7605 16.7732 17.9818C17.7605 17.1962 18.5652 16.2052 19.1313 15.0775H15.3669C15.1446 15.8974 14.8628 16.7001 14.5235 17.4789C14.2162 18.1975 13.8509 18.8899 13.4314 19.5493V19.5504ZM2.73578 13.413H6.86076C6.79049 13.0005 6.73989 12.596 6.70897 12.1996C6.67804 11.8033 6.66258 11.4034 6.66258 11C6.66258 10.5973 6.6784 10.1977 6.71002 9.80136C6.74165 9.40499 6.79224 9.00054 6.86182 8.58801H2.73684C2.62823 8.97374 2.54617 9.36652 2.49122 9.76346C2.43409 10.1732 2.40555 10.5863 2.40583 11C2.4056 11.4133 2.43413 11.8261 2.49122 12.2355C2.54616 12.6324 2.62822 13.0251 2.73684 13.4109L2.73578 13.413ZM8.52531 13.413H14.0397C14.11 13.0005 14.1606 12.5995 14.1915 12.2102C14.2224 11.8208 14.2365 11.4174 14.2337 11C14.2337 10.5832 14.2178 10.1802 14.1862 9.79087C14.1546 9.40153 14.104 9.00054 14.0344 8.58801H8.52003C8.44975 9.00054 8.39915 9.40153 8.36823 9.79087C8.33731 10.1802 8.32466 10.5832 8.33028 11C8.33028 11.4167 8.3461 11.8197 8.37772 12.2091C8.40935 12.5984 8.45889 12.9994 8.52636 13.412L8.52531 13.413ZM15.7042 13.413H19.8292C19.9378 13.0272 20.0199 12.6345 20.0748 12.2376C20.1319 11.8282 20.1604 11.4154 20.1602 11.0021C20.1604 10.5888 20.1319 10.176 20.0748 9.76662C20.0199 9.36967 19.9378 8.97696 19.8292 8.59122H15.7095C15.7798 9.00376 15.8304 9.40821 15.8613 9.80458C15.8922 10.2009 15.908 10.6004 15.9087 11.0031C15.9087 11.4058 15.8929 11.8054 15.8613 12.2018C15.8297 12.5981 15.7791 13.0026 15.7095 13.4151L15.7042 13.413ZM15.3669 6.92561H19.1313C18.5704 5.79911 17.7711 4.80811 16.789 4.02136C15.8059 3.24372 14.6571 2.70268 13.4314 2.4401C13.8708 3.112 14.2507 3.821 14.5668 4.559C14.8977 5.32468 15.1653 6.1162 15.3669 6.92561ZM8.90692 6.92561H13.657C13.4162 6.04179 13.0907 5.18323 12.6851 4.36186C12.2936 3.57729 11.8235 2.83448 11.282 2.1449C10.7406 2.83348 10.2705 3.57524 9.87886 4.3587C9.47344 5.18113 9.14725 6.04074 8.90692 6.92561ZM3.43365 6.92561H7.1981C7.3998 6.11692 7.6674 5.32612 7.99822 4.56112C8.31428 3.82313 8.69416 3.11413 9.13356 2.44223C7.90517 2.70142 6.75391 3.24276 5.77075 4.02348C4.79374 4.81293 3.99613 5.8025 3.43365 6.92561Z" fill="#017DC0"/>
</svg>
