<svg width="16" height="16" viewBox="0 0 16 16" fill="none" xmlns="http://www.w3.org/2000/svg">
<path d="M8.00049 1.76779C9.13907 1.76779 10.1778 2.04744 11.1166 2.60674C12.0554 3.14607 12.8145 3.90512 13.3937 4.88389C13.953 5.86267 14.2327 6.90137 14.2327 8C14.2327 9.09862 13.953 10.1373 13.3937 11.1161C12.8145 12.0949 12.0554 12.8539 11.1166 13.3933C10.1778 13.9526 9.13907 14.2322 8.00049 14.2322C6.86191 14.2322 5.82321 13.9526 4.88439 13.3933C3.94556 12.8539 3.18651 12.0949 2.60723 11.1161C2.04793 10.1373 1.76828 9.09862 1.76828 8C1.76828 6.90137 2.04793 5.86267 2.60723 4.88389C3.18651 3.90512 3.94556 3.14607 4.88439 2.60674C5.82321 2.04744 6.86191 1.76779 8.00049 1.76779ZM8.00049 15.6704C9.39874 15.6504 10.6771 15.3109 11.8357 14.6517C12.9942 13.9725 13.9331 13.0337 14.6522 11.8352C15.3313 10.6167 15.6709 9.33833 15.6709 8C15.6709 6.66167 15.3313 5.38327 14.6522 4.16479C13.9331 2.96629 12.9942 2.02746 11.8357 1.34831C10.6771 0.689137 9.39874 0.349561 8.00049 0.329586C6.60224 0.349561 5.32384 0.689137 4.16528 1.34831C3.00673 2.02746 2.06791 2.96629 1.3488 4.16479C0.669654 5.38327 0.330078 6.66167 0.330078 8C0.330078 9.33833 0.669654 10.6167 1.3488 11.8352C2.06791 13.0337 3.00673 13.9725 4.16528 14.6517C5.32384 15.3109 6.60224 15.6504 8.00049 15.6704ZM6.80199 10.397H6.08289V11.8352H6.80199H9.91809V10.397H9.19899H8.95929V7.7603V7.0412H8.24019H6.08289V8.4794H6.80199H7.52109V10.397H6.80199ZM8.95929 6.0824V4.16479H7.04169V6.0824H8.95929Z" fill="black"/>
</svg>
