<svg width="134" height="37" viewBox="0 0 134 37" fill="none" xmlns="http://www.w3.org/2000/svg">
<g clip-path="url(#clip0_128_2793)">
<g clip-path="url(#clip1_128_2793)">
<path d="M20.0273 22.5037L20.026 29.3675C20.026 31.9251 18.0061 34.0001 15.5136 34.0001C13.0212 34.0001 11 31.9251 11 29.3675V22.7069C11 17.4877 15.1364 13.2399 20.2215 13.2399H27.4081C27.6345 13.2399 27.8559 13.2564 28.0724 13.2894C23.5489 13.7923 20.0285 17.7264 20.0285 22.5025L20.0273 22.5037Z" fill="#00B5E8"/>
<g style="mix-blend-mode:overlay" opacity="0.4">
<path d="M23.2025 14.2075C20.7496 16.0311 19.1589 18.9683 19.0872 22.27L19.0847 22.2751V22.505L19.0822 29.3662C19.0822 30.9866 18.0531 32.3644 16.6294 32.847C17.6597 32.2031 18.35 31.0386 18.35 29.7116V22.8504L18.3524 22.6205L18.3549 22.6154C18.4192 19.663 19.3915 17.0013 21.3496 15.1675C21.5821 14.9491 21.4312 14.5516 21.117 14.5516H19.488C18.3982 14.5516 17.3567 14.7688 16.4018 15.165C17.5447 14.5516 18.8435 14.205 20.219 14.205H23.2013L23.2025 14.2075Z" fill="#1F1E21"/>
</g>
<g style="mix-blend-mode:overlay">
<path d="M27.9277 13.2907C23.4041 13.7936 19.8838 17.7277 19.8838 22.5038L19.8825 29.3675C19.8825 31.9251 17.8626 34.0001 15.3701 34.0001C15.2935 34.0001 15.2168 33.9988 15.1401 33.995C17.5583 33.882 19.4855 31.8311 19.4855 29.3205V22.3882L19.488 22.3869C19.488 17.9106 22.5494 14.1656 26.64 13.2424H27.2659C27.4923 13.2424 27.7137 13.2589 27.9301 13.292L27.9277 13.2907Z" fill="white"/>
</g>
<path d="M31.9193 17.8724C31.9193 19.8344 30.7318 21.5107 29.0545 22.1862C28.5783 22.3793 28.0613 22.4897 27.5232 22.5037H20.026C20.026 17.7277 23.5476 13.7935 28.0699 13.2906C28.3705 13.3364 28.6612 13.4113 28.9407 13.5154C28.9778 13.5294 29.0174 13.5446 29.0545 13.5599C30.7318 14.2354 31.9193 15.913 31.9193 17.8737V17.8724Z" fill="#017DC0"/>
<path opacity="0.3" d="M28.942 13.5154C23.7579 13.7554 20.8523 17.4699 20.8523 22.5037H20.0273C20.0273 17.7277 23.5489 13.7935 28.0711 13.2906C28.3717 13.3364 28.6624 13.4113 28.942 13.5154Z" fill="#1F1E21"/>
<path d="M26.2392 2.01526C17.7612 2.38607 11 9.55969 11 18.3537V11.481C11 6.25416 15.1289 2.01526 20.2202 2.01526H26.238H26.2392Z" fill="#017DC0"/>
<path d="M35.9999 6.58687C36.0333 9.17364 33.9998 11.2804 31.4888 11.2804H20.0247C16.4833 11.3528 13.4058 13.4024 11.7978 16.3942C11.5665 16.8235 11.3673 17.2705 11.2003 17.7352C11.1867 17.7721 11.1731 17.8089 11.1608 17.8457C11.1608 17.8457 11.1608 17.8483 11.1608 17.8495C11.1471 17.8876 11.1335 17.9283 11.1199 17.9676C11.0927 18.0476 11.0667 18.1315 11.0408 18.2191L11.0012 18.355C11 9.55968 17.7611 2.38607 26.2392 2.01526H31.4208C33.9008 2.01526 35.9678 4.04074 35.9999 6.58687Z" fill="#00B5E8"/>
<g style="mix-blend-mode:overlay">
<path d="M26.9851 2.01526C19.2393 2.35432 12.5993 8.30503 11.6147 16.7523C11.3834 17.1816 11.3673 17.2705 11.2003 17.7352C11.1867 17.7721 11.1731 17.8089 11.1608 17.8457C11.1608 17.8457 11.1608 17.8483 11.1608 17.8495C11.1471 17.8876 11.1335 17.927 11.1199 17.9676C11.0927 18.0476 11.0667 18.1315 11.0408 18.2191C11.0272 18.2635 11.0136 18.308 11.0012 18.355C11 9.55968 17.7611 2.38607 26.2392 2.01526H26.9851Z" fill="white"/>
</g>
<path d="M26.2392 2.01524H26.9294V2C26.6981 2 26.4681 2.00508 26.2392 2.01524Z" fill="#017DC0"/>
<g style="mix-blend-mode:overlay" opacity="0.4">
<path d="M35.0574 6.59949C35.0698 7.58746 34.7049 8.51957 34.0283 9.22309C33.6238 9.64469 33.1365 9.952 32.6046 10.1323C32.8532 9.9774 33.0857 9.78819 33.296 9.56977C33.9714 8.86625 34.3375 7.93542 34.3252 6.94617C34.3004 4.95117 32.6677 3.32825 30.6873 3.32825H25.5255C23.7022 3.41079 21.9359 3.82732 20.2969 4.54734C22.1363 3.61524 24.1587 3.07681 26.2565 2.98157H31.4183C33.3987 2.98157 35.0302 4.60449 35.0562 6.59949H35.0574Z" fill="#1F1E21"/>
</g>
<path opacity="0.3" d="M26.2392 2.01526C17.7612 2.38607 11 9.55969 11 18.3537V14.6837C11.6432 11.7198 13.0657 8.98188 15.1574 6.74688C17.3901 4.36075 20.2066 2.73402 23.2879 2.01526H26.2392Z" fill="#1F1E21"/>
</g>
<path d="M46.804 17V1.82H57.188V4.68H49.972V8.42H56.528V11.28H49.972V17H46.804ZM58.2437 5.846L58.5517 5.384H61.1697L63.8537 14.36H64.0737L66.7577 5.384H69.3757L69.6837 5.846L64.8217 21.4H62.2037L61.8957 20.938L63.2157 17H61.7417L58.2437 5.846ZM71.6563 17V5.384H78.0803C80.4563 5.384 81.6443 6.572 81.6443 8.948V17H78.6083V8.728C78.6083 8.25867 78.3736 8.024 77.9043 8.024H74.6923V17H71.6563ZM82.7819 4.68V1.82H95.1899V4.68H90.5699V17H87.4019V4.68H82.7819ZM96.2518 13.436V8.948C96.2518 6.572 97.4398 5.384 99.8158 5.384H102.676C105.052 5.384 106.24 6.572 106.24 8.948V12.314H99.2878V13.656C99.2878 14.1253 99.5224 14.36 99.9918 14.36H105.8V16.01L104.48 17H99.8158C97.4398 17 96.2518 15.812 96.2518 13.436ZM99.2878 9.982H103.204V8.728C103.204 8.25867 102.969 8.024 102.5 8.024H99.9918C99.5224 8.024 99.2878 8.25867 99.2878 8.728V9.982ZM109.144 12.776V0.72H112.18V13.084C112.18 13.9933 112.65 14.4993 113.588 14.602V17.22C110.626 17.22 109.144 15.7387 109.144 12.776Z" fill="#1C1C1C"/>
<path d="M45.336 24.404V23.34H52.952V24.404H49.732V33H48.556V24.404H45.336ZM53.7326 30.9V27.82C53.7326 26.42 54.4326 25.72 55.8326 25.72H57.6526C59.0526 25.72 59.7526 26.42 59.7526 27.82V29.794H54.8526V31.04C54.8526 31.6933 55.1793 32.02 55.8326 32.02H59.4726V32.58L58.9126 33H55.8326C54.4326 33 53.7326 32.3 53.7326 30.9ZM54.8526 28.884H58.6326V27.68C58.6326 27.0267 58.3059 26.7 57.6526 26.7H55.8326C55.1793 26.7 54.8526 27.0267 54.8526 27.68V28.884ZM61.8277 31.012V22.64H62.9477V31.124C62.9477 31.768 63.2743 32.1087 63.9277 32.146V33.112C62.5277 33.112 61.8277 32.412 61.8277 31.012ZM65.4084 30.9V27.82C65.4084 26.42 66.1084 25.72 67.5084 25.72H69.3284C70.7284 25.72 71.4284 26.42 71.4284 27.82V29.794H66.5284V31.04C66.5284 31.6933 66.8551 32.02 67.5084 32.02H71.1484V32.58L70.5884 33H67.5084C66.1084 33 65.4084 32.3 65.4084 30.9ZM66.5284 28.884H70.3084V27.68C70.3084 27.0267 69.9817 26.7 69.3284 26.7H67.5084C66.8551 26.7 66.5284 27.0267 66.5284 27.68V28.884ZM73.4475 30.9V27.82C73.4475 26.42 74.1475 25.72 75.5475 25.72H78.2915L78.8515 26.14V26.7H75.5475C74.8941 26.7 74.5675 27.0267 74.5675 27.68V31.04C74.5675 31.6933 74.8941 32.02 75.5475 32.02H78.8515V32.58L78.2915 33H75.5475C74.1475 33 73.4475 32.3 73.4475 30.9ZM80.5021 30.9V27.82C80.5021 26.42 81.2021 25.72 82.6021 25.72H84.5621C85.9621 25.72 86.6621 26.42 86.6621 27.82V30.9C86.6621 32.3 85.9621 33 84.5621 33H82.6021C81.2021 33 80.5021 32.3 80.5021 30.9ZM81.6221 31.04C81.6221 31.6933 81.9488 32.02 82.6021 32.02H84.5621C85.2155 32.02 85.5421 31.6933 85.5421 31.04V27.68C85.5421 27.0267 85.2155 26.7 84.5621 26.7H82.6021C81.9488 26.7 81.6221 27.0267 81.6221 27.68V31.04ZM88.7899 33V25.72H97.0499C98.4499 25.72 99.1499 26.42 99.1499 27.82V33H98.0299V27.68C98.0299 27.0267 97.7033 26.7 97.0499 26.7H94.5299V33H93.4099V26.7H89.9099V33H88.7899Z" fill="#1C1C1C"/>
</g>
<defs>
<clipPath id="clip0_128_2793">
<rect width="134" height="37" fill="white"/>
</clipPath>
<clipPath id="clip1_128_2793">
<rect width="25" height="32" fill="white" transform="translate(11 2)"/>
</clipPath>
</defs>
</svg>
