<svg width="134" height="48" viewBox="0 0 134 48" fill="none" xmlns="http://www.w3.org/2000/svg">
<g filter="url(#filter0_dii_138_460)">
<path d="M2.25977 9C2.25977 4.58172 5.84149 1 10.2598 1H123.26C127.678 1 131.26 4.58172 131.26 9V37C131.26 41.4183 127.678 45 123.26 45H10.2598C5.84149 45 2.25977 41.4183 2.25977 37V9Z" fill="#E7F6FF"/>
<path d="M10.2598 2H123.26C127.126 2 130.26 5.13401 130.26 9V37C130.26 40.866 127.126 44 123.26 44H10.2598C6.39377 44 3.25977 40.866 3.25977 37V9C3.25977 5.13401 6.39377 2 10.2598 2Z" stroke="#D3E7FE" stroke-width="2"/>
<path d="M27.2598 27.1667C27.2598 27.9416 27.2598 28.3291 27.345 28.647C27.5761 29.5098 28.25 30.1836 29.1127 30.4148C29.4306 30.5 29.8181 30.5 30.5931 30.5H35.7598C37.1599 30.5 37.86 30.5 38.3947 30.2275C38.8651 29.9878 39.2476 29.6054 39.4873 29.135C39.7598 28.6002 39.7598 27.9001 39.7598 26.5V19.5C39.7598 18.0999 39.7598 17.3998 39.4873 16.865C39.2476 16.3946 38.8651 16.0122 38.3947 15.7725C37.86 15.5 37.1599 15.5 35.7598 15.5H30.5931C29.8181 15.5 29.4306 15.5 29.1127 15.5852C28.25 15.8164 27.5761 16.4902 27.345 17.353C27.2598 17.6709 27.2598 18.0584 27.2598 18.8333M32.2598 19.6667L35.5931 23M35.5931 23L32.2598 26.3333M35.5931 23H24.7598" stroke="#017DC0" stroke-width="1.66667" stroke-linecap="round" stroke-linejoin="round"/>
<path d="M51.4075 29V17.3636H53.5154V27.233H58.6404V29H51.4075ZM64.1859 29.1705C63.3336 29.1705 62.595 28.983 61.97 28.608C61.345 28.233 60.8601 27.7083 60.5154 27.0341C60.1745 26.3598 60.0041 25.572 60.0041 24.6705C60.0041 23.7689 60.1745 22.9792 60.5154 22.3011C60.8601 21.6231 61.345 21.0966 61.97 20.7216C62.595 20.3466 63.3336 20.1591 64.1859 20.1591C65.0382 20.1591 65.7768 20.3466 66.4018 20.7216C67.0268 21.0966 67.5098 21.6231 67.8507 22.3011C68.1954 22.9792 68.3677 23.7689 68.3677 24.6705C68.3677 25.572 68.1954 26.3598 67.8507 27.0341C67.5098 27.7083 67.0268 28.233 66.4018 28.608C65.7768 28.983 65.0382 29.1705 64.1859 29.1705ZM64.1973 27.5227C64.6594 27.5227 65.0458 27.3958 65.3564 27.142C65.667 26.8845 65.898 26.5398 66.0495 26.108C66.2048 25.6761 66.2825 25.1951 66.2825 24.6648C66.2825 24.1307 66.2048 23.6477 66.0495 23.2159C65.898 22.7803 65.667 22.4337 65.3564 22.1761C65.0458 21.9186 64.6594 21.7898 64.1973 21.7898C63.7238 21.7898 63.3298 21.9186 63.0154 22.1761C62.7048 22.4337 62.4719 22.7803 62.3166 23.2159C62.1651 23.6477 62.0893 24.1307 62.0893 24.6648C62.0893 25.1951 62.1651 25.6761 62.3166 26.108C62.4719 26.5398 62.7048 26.8845 63.0154 27.142C63.3298 27.3958 63.7238 27.5227 64.1973 27.5227ZM73.9089 32.4545C73.1703 32.4545 72.5358 32.3542 72.0055 32.1534C71.4752 31.9564 71.0491 31.6913 70.7271 31.358C70.4051 31.0246 70.1816 30.6553 70.0566 30.25L71.9089 29.8011C71.9922 29.9716 72.1135 30.1402 72.2725 30.3068C72.4316 30.4773 72.6457 30.6174 72.9146 30.7273C73.1873 30.8409 73.5301 30.8977 73.943 30.8977C74.5263 30.8977 75.0093 30.7557 75.3919 30.4716C75.7744 30.1913 75.9657 29.7292 75.9657 29.0852V27.4318H75.8635C75.7574 27.6439 75.6021 27.8617 75.3976 28.0852C75.1968 28.3087 74.9297 28.4962 74.5964 28.6477C74.2669 28.7992 73.8521 28.875 73.3521 28.875C72.6816 28.875 72.0737 28.7178 71.5282 28.4034C70.9866 28.0852 70.5547 27.6117 70.2328 26.983C69.9146 26.3504 69.7555 25.5587 69.7555 24.608C69.7555 23.6496 69.9146 22.8409 70.2328 22.1818C70.5547 21.5189 70.9885 21.017 71.5339 20.6761C72.0794 20.3314 72.6873 20.1591 73.3578 20.1591C73.8691 20.1591 74.2896 20.2462 74.6191 20.4205C74.9525 20.5909 75.2176 20.7973 75.4146 21.0398C75.6116 21.2784 75.7612 21.5038 75.8635 21.7159H75.9771V20.2727H78.0055V29.142C78.0055 29.8883 77.8275 30.5057 77.4714 30.9943C77.1154 31.483 76.6286 31.8485 76.0112 32.0909C75.3938 32.3333 74.693 32.4545 73.9089 32.4545ZM73.926 27.2614C74.3616 27.2614 74.7328 27.1553 75.0396 26.9432C75.3464 26.7311 75.5794 26.4261 75.7385 26.0284C75.8976 25.6307 75.9771 25.1534 75.9771 24.5966C75.9771 24.0473 75.8976 23.5663 75.7385 23.1534C75.5832 22.7405 75.3521 22.4205 75.0453 22.1932C74.7422 21.9621 74.3691 21.8466 73.926 21.8466C73.4676 21.8466 73.085 21.9659 72.7782 22.2045C72.4714 22.4432 72.2404 22.7708 72.085 23.1875C71.9297 23.6004 71.8521 24.0701 71.8521 24.5966C71.8521 25.1307 71.9297 25.5985 72.085 26C72.2441 26.3977 72.4771 26.7083 72.7839 26.9318C73.0945 27.1515 73.4752 27.2614 73.926 27.2614ZM87.889 29.1705C87.0368 29.1705 86.2981 28.983 85.6731 28.608C85.0481 28.233 84.5633 27.7083 84.2186 27.0341C83.8777 26.3598 83.7072 25.572 83.7072 24.6705C83.7072 23.7689 83.8777 22.9792 84.2186 22.3011C84.5633 21.6231 85.0481 21.0966 85.6731 20.7216C86.2981 20.3466 87.0368 20.1591 87.889 20.1591C88.7413 20.1591 89.4799 20.3466 90.1049 20.7216C90.7299 21.0966 91.2129 21.6231 91.5538 22.3011C91.8985 22.9792 92.0708 23.7689 92.0708 24.6705C92.0708 25.572 91.8985 26.3598 91.5538 27.0341C91.2129 27.7083 90.7299 28.233 90.1049 28.608C89.4799 28.983 88.7413 29.1705 87.889 29.1705ZM87.9004 27.5227C88.3625 27.5227 88.7489 27.3958 89.0595 27.142C89.3701 26.8845 89.6011 26.5398 89.7527 26.108C89.908 25.6761 89.9856 25.1951 89.9856 24.6648C89.9856 24.1307 89.908 23.6477 89.7527 23.2159C89.6011 22.7803 89.3701 22.4337 89.0595 22.1761C88.7489 21.9186 88.3625 21.7898 87.9004 21.7898C87.4269 21.7898 87.033 21.9186 86.7186 22.1761C86.408 22.4337 86.175 22.7803 86.0197 23.2159C85.8682 23.6477 85.7924 24.1307 85.7924 24.6648C85.7924 25.1951 85.8682 25.6761 86.0197 26.108C86.175 26.5398 86.408 26.8845 86.7186 27.142C87.033 27.3958 87.4269 27.5227 87.9004 27.5227ZM99.3791 25.3295V20.2727H101.436V29H99.4416V27.4489H99.3507C99.1537 27.9375 98.8298 28.3371 98.3791 28.6477C97.9321 28.9583 97.381 29.1136 96.7257 29.1136C96.1537 29.1136 95.648 28.9867 95.2086 28.733C94.773 28.4754 94.4321 28.1023 94.1859 27.6136C93.9397 27.1212 93.8166 26.5265 93.8166 25.8295V20.2727H95.8734V25.5114C95.8734 26.0644 96.0249 26.5038 96.3279 26.8295C96.631 27.1553 97.0287 27.3182 97.5211 27.3182C97.8242 27.3182 98.1177 27.2443 98.4018 27.0966C98.6859 26.9489 98.9189 26.7292 99.1007 26.4375C99.2863 26.142 99.3791 25.7727 99.3791 25.3295ZM107.909 20.2727V21.8636H102.892V20.2727H107.909ZM104.131 18.1818H106.187V26.375C106.187 26.6515 106.229 26.8636 106.312 27.0114C106.399 27.1553 106.513 27.2538 106.653 27.3068C106.793 27.3598 106.949 27.3864 107.119 27.3864C107.248 27.3864 107.365 27.3769 107.471 27.358C107.581 27.339 107.665 27.322 107.721 27.3068L108.068 28.9148C107.958 28.9527 107.801 28.9943 107.596 29.0398C107.396 29.0852 107.149 29.1117 106.858 29.1193C106.343 29.1345 105.879 29.0568 105.466 28.8864C105.053 28.7121 104.725 28.4432 104.483 28.0795C104.244 27.7159 104.127 27.2614 104.131 26.7159V18.1818Z" fill="#017DC0"/>
</g>
<defs>
<filter id="filter0_dii_138_460" x="0.259766" y="0" width="133" height="48" filterUnits="userSpaceOnUse" color-interpolation-filters="sRGB">
<feFlood flood-opacity="0" result="BackgroundImageFix"/>
<feColorMatrix in="SourceAlpha" type="matrix" values="0 0 0 0 0 0 0 0 0 0 0 0 0 0 0 0 0 0 127 0" result="hardAlpha"/>
<feOffset dy="1"/>
<feGaussianBlur stdDeviation="1"/>
<feColorMatrix type="matrix" values="0 0 0 0 0.0392157 0 0 0 0 0.0496732 0 0 0 0 0.0705882 0 0 0 0.05 0"/>
<feBlend mode="normal" in2="BackgroundImageFix" result="effect1_dropShadow_138_460"/>
<feBlend mode="normal" in="SourceGraphic" in2="effect1_dropShadow_138_460" result="shape"/>
<feColorMatrix in="SourceAlpha" type="matrix" values="0 0 0 0 0 0 0 0 0 0 0 0 0 0 0 0 0 0 127 0" result="hardAlpha"/>
<feOffset dy="-2"/>
<feComposite in2="hardAlpha" operator="arithmetic" k2="-1" k3="1"/>
<feColorMatrix type="matrix" values="0 0 0 0 0.0392157 0 0 0 0 0.0496732 0 0 0 0 0.0705882 0 0 0 0.05 0"/>
<feBlend mode="normal" in2="shape" result="effect2_innerShadow_138_460"/>
<feColorMatrix in="SourceAlpha" type="matrix" values="0 0 0 0 0 0 0 0 0 0 0 0 0 0 0 0 0 0 127 0" result="hardAlpha"/>
<feMorphology radius="1" operator="erode" in="SourceAlpha" result="effect3_innerShadow_138_460"/>
<feOffset/>
<feComposite in2="hardAlpha" operator="arithmetic" k2="-1" k3="1"/>
<feColorMatrix type="matrix" values="0 0 0 0 0.0392157 0 0 0 0 0.0496732 0 0 0 0 0.0705882 0 0 0 0.18 0"/>
<feBlend mode="normal" in2="effect2_innerShadow_138_460" result="effect3_innerShadow_138_460"/>
</filter>
</defs>
</svg>
