<svg width="16" height="20" viewBox="0 0 16 20" fill="none" xmlns="http://www.w3.org/2000/svg">
<path d="M3.25 16.8078H4.75V15.0962H3.25V16.8078ZM3.25 12.9038H4.75V9.19225H3.25V12.9038ZM7.25 16.8078H8.75V13.0963H7.25V16.8078ZM7.25 10.9038H8.75V9.19225H7.25V10.9038ZM11.25 16.8078H12.75V15.0962H11.25V16.8078ZM11.25 12.9038H12.75V9.19225H11.25V12.9038ZM2.30775 19.5C1.80258 19.5 1.375 19.325 1.025 18.975C0.675 18.625 0.5 18.1974 0.5 17.6923V6.2115L6.2115 0.5H13.6923C14.1974 0.5 14.625 0.675 14.975 1.025C15.325 1.375 15.5 1.80258 15.5 2.30775V17.6923C15.5 18.1974 15.325 18.625 14.975 18.975C14.625 19.325 14.1974 19.5 13.6923 19.5H2.30775ZM2.30775 18H13.6923C13.7692 18 13.8398 17.9679 13.9038 17.9038C13.9679 17.8398 14 17.7693 14 17.6923V2.30775C14 2.23075 13.9679 2.16025 13.9038 2.09625C13.8398 2.03208 13.7692 2 13.6923 2H6.85L2 6.85V17.6923C2 17.7693 2.03208 17.8398 2.09625 17.9038C2.16025 17.9679 2.23075 18 2.30775 18ZM2.30775 18H2H14H2.30775Z" fill="#292C31"/>
</svg>
