<svg width="16" height="16" viewBox="0 0 16 16" fill="none" xmlns="http://www.w3.org/2000/svg">
<path d="M8 7.69214C7.0375 7.69214 6.21358 7.34947 5.52825 6.66414C4.84275 5.97864 4.5 5.15464 4.5 4.19214C4.5 3.22964 4.84275 2.40572 5.52825 1.72039C6.21358 1.03489 7.0375 0.692139 8 0.692139C8.9625 0.692139 9.78642 1.03489 10.4718 1.72039C11.1573 2.40572 11.5 3.22964 11.5 4.19214C11.5 5.15464 11.1573 5.97864 10.4718 6.66414C9.78642 7.34947 8.9625 7.69214 8 7.69214ZM0.5 15.3076V13.0844C0.5 12.5947 0.633 12.1412 0.899 11.7239C1.165 11.3066 1.5205 10.9857 1.9655 10.7614C2.95383 10.2769 3.95092 9.91347 4.95675 9.67114C5.96258 9.42881 6.977 9.30764 8 9.30764C9.023 9.30764 10.0374 9.42881 11.0433 9.67114C12.0491 9.91347 13.0462 10.2769 14.0345 10.7614C14.4795 10.9857 14.835 11.3066 15.101 11.7239C15.367 12.1412 15.5 12.5947 15.5 13.0844V15.3076H0.5ZM2 13.8076H14V13.0844C14 12.8819 13.9413 12.6944 13.824 12.5219C13.7067 12.3496 13.5474 12.2089 13.3462 12.0999C12.4846 11.6756 11.6061 11.3541 10.7107 11.1354C9.81525 10.9169 8.91167 10.8076 8 10.8076C7.08833 10.8076 6.18475 10.9169 5.28925 11.1354C4.39392 11.3541 3.51542 11.6756 2.65375 12.0999C2.45258 12.2089 2.29333 12.3496 2.176 12.5219C2.05867 12.6944 2 12.8819 2 13.0844V13.8076ZM8 6.19214C8.55 6.19214 9.02083 5.99631 9.4125 5.60464C9.80417 5.21297 10 4.74214 10 4.19214C10 3.64214 9.80417 3.17131 9.4125 2.77964C9.02083 2.38797 8.55 2.19214 8 2.19214C7.45 2.19214 6.97917 2.38797 6.5875 2.77964C6.19583 3.17131 6 3.64214 6 4.19214C6 4.74214 6.19583 5.21297 6.5875 5.60464C6.97917 5.99631 7.45 6.19214 8 6.19214Z" fill="#292C31"/>
</svg>
