<svg width="14" height="22" viewBox="0 0 14 22" fill="none" xmlns="http://www.w3.org/2000/svg">
<path d="M2.30775 21.5C1.80258 21.5 1.375 21.325 1.025 20.975C0.675 20.625 0.5 20.1974 0.5 19.6923V2.30775C0.5 1.80258 0.675 1.375 1.025 1.025C1.375 0.675 1.80258 0.5 2.30775 0.5H11.6923C12.1974 0.5 12.625 0.675 12.975 1.025C13.325 1.375 13.5 1.80258 13.5 2.30775V19.6923C13.5 20.1974 13.325 20.625 12.975 20.975C12.625 21.325 12.1974 21.5 11.6923 21.5H2.30775ZM2 16.7693V19.6923C2 19.7693 2.03208 19.8398 2.09625 19.9038C2.16025 19.9679 2.23075 20 2.30775 20H11.6923C11.7692 20 11.8398 19.9679 11.9038 19.9038C11.9679 19.8398 12 19.7693 12 19.6923V16.7693H2ZM7 19.2693C7.24483 19.2693 7.4535 19.183 7.626 19.0105C7.79833 18.8382 7.8845 18.6295 7.8845 18.3845C7.8845 18.1397 7.79833 17.9311 7.626 17.7587C7.4535 17.5863 7.24483 17.5 7 17.5C6.75517 17.5 6.5465 17.5863 6.374 17.7587C6.20167 17.9311 6.1155 18.1397 6.1155 18.3845C6.1155 18.6295 6.20167 18.8382 6.374 19.0105C6.5465 19.183 6.75517 19.2693 7 19.2693ZM2 15.2693H12V4.75H2V15.2693ZM2 3.25H12V2.30775C12 2.23075 11.9679 2.16025 11.9038 2.09625C11.8398 2.03208 11.7692 2 11.6923 2H2.30775C2.23075 2 2.16025 2.03208 2.09625 2.09625C2.03208 2.16025 2 2.23075 2 2.30775V3.25Z" fill="#292C31"/>
</svg>
