<svg width="84" height="84" viewBox="0 0 84 84" fill="none" xmlns="http://www.w3.org/2000/svg">
<circle cx="42" cy="42" r="42" fill="#284F1C"/>
<circle cx="41.8395" cy="41.8356" r="35.2731" fill="#284F1C" stroke="#FCFCFC" stroke-width="1.5"/>
<path d="M38.6167 36.1696C40.4252 37.0611 42.7303 36.9941 44.5829 36.2162C45.525 36.7193 47.3339 37.9248 47.3339 39.7699V44.1424C47.3339 44.7763 47.9301 45.2902 48.6668 45.2902C49.4035 45.2902 49.9997 44.7763 49.9997 44.1424V41.9561C49.9997 40.1115 51.8091 38.9051 52.7512 38.4019C54.6038 39.1773 56.9106 39.2455 58.7168 38.3565C61.958 36.7581 61.807 33.3764 61.7992 33.2335C61.7784 32.8664 61.5545 32.5296 61.1979 32.3284C61.0573 32.2505 57.7459 30.4257 54.506 32.0224C52.1569 33.1805 51.592 35.2706 51.4608 36.3907C51.0579 36.5987 50.539 36.9026 49.9997 37.3057V31.8775C51.5731 31.3902 54.4142 30.1405 55.3092 27.2951C56.5431 23.3766 52.81 20.4528 52.6512 20.3306C52.3375 20.0902 51.9131 19.9904 51.5005 20.0616C51.2909 20.098 46.3537 20.9981 45.1211 24.9166C44.1295 28.0664 46.3427 30.5688 47.3339 31.4952V35.1194C46.7946 34.7163 46.2756 34.4125 45.8728 34.2044C45.7416 33.0842 45.1767 30.9941 42.8276 29.8356C39.5838 28.2383 36.2763 30.0642 36.1357 30.1421C35.7791 30.3433 35.5552 30.6802 35.5344 31.0472C35.5265 31.1902 35.3755 34.5718 38.6167 36.1696Z" fill="#FCFCFC"/>
<path d="M21.298 50.6031C20.9101 50.8133 20.6758 51.1798 20.6758 51.5738V62.5006C20.6758 63.1345 21.2719 63.6484 22.0087 63.6484H28.487C28.6888 63.6484 28.8892 63.6086 29.0715 63.5324L32.9831 61.8907L25.8673 48.1211L21.298 50.6031Z" fill="#FCFCFC"/>
<path d="M62.4146 46.0942C61.0791 44.5928 58.6242 44.1607 56.7133 45.0854L51.0931 47.8008C51.5739 48.849 51.7489 50.012 51.5132 51.189C50.8624 54.4396 47.0936 56.834 43.288 56.409L40.0781 56.047C39.3479 55.9646 38.8338 55.3879 38.9301 54.7596C39.0238 54.1314 39.6837 53.6909 40.4244 53.7705L43.633 54.1325C46.0449 54.4043 48.4699 52.8794 48.8865 50.799C49.2863 48.8019 47.7087 46.6817 45.3874 46.1765L36.785 44.3193C35.0108 43.9387 33.1091 44.2004 31.564 45.0394L28.1504 46.8953L35.4173 60.9572L49.4774 60.0658C49.7599 60.0485 50.0293 59.9532 50.2441 59.7952L61.7716 51.3337C63.5705 50.0122 63.8529 47.711 62.4146 46.0942Z" fill="#FCFCFC"/>
</svg>
