<svg width="151" height="45" viewBox="0 0 151 45" fill="none" xmlns="http://www.w3.org/2000/svg">
<g clip-path="url(#clip0_182_944)">
<path d="M21.1848 3.18098V7.4988C18.6262 5.99127 16.0317 5.15807 13.2716 5.15807C7.78013 5.15807 4.64217 9.00634 4.64217 13.1582C4.64217 17.3101 7.78013 21.0242 13.2032 21.0242C16.136 21.0242 18.8314 20.1557 21.3576 18.514V22.7965C18.6982 24.2017 15.8302 24.8054 12.6922 24.8054C4.33269 24.8019 0 19.0118 0 13.1194C0 6.16074 5.59579 1.37335 12.757 1.37335C15.4163 1.37335 18.216 1.94177 21.1848 3.18098Z" fill="#0033A0"/>
<path d="M49.5273 13.0523C49.5273 19.2766 44.8888 24.7983 36.702 24.7983C28.5152 24.7983 24.1501 19.3437 24.1501 13.1194C24.1501 7.32934 28.2777 1.37335 36.8387 1.37335C44.5145 1.37335 49.5273 6.55969 49.5273 13.0523ZM28.7527 13.1194C28.7527 17.6702 32.3009 20.8159 36.7344 20.8159C41.1678 20.8159 44.9212 18.1045 44.9212 13.0523C44.9212 9.27112 42.1251 5.35578 36.8711 5.35578C31.6172 5.35578 28.7527 8.70271 28.7527 13.1194Z" fill="#0033A0"/>
<path d="M57.7103 1.67346L65.2493 10.7751L72.756 1.67346H76.8835V24.4983H72.3817V8.20139L65.5264 16.6358H64.9111L57.9874 8.20139V24.5018H53.554V1.67346H57.7139H57.7103Z" fill="#0033A0"/>
<path d="M90.3207 1.67346C95.3336 1.67346 98.3384 4.14836 98.3384 8.36733C98.3384 12.5863 95.4379 15.0259 90.1516 15.0259H86.4667V24.4983H81.9648V1.67346H90.3207ZM86.4667 11.6472H89.4679C92.775 11.6472 93.7322 10.3409 93.7322 8.33555C93.7322 6.19253 92.6058 5.02039 89.3671 5.02039H86.4667V11.6472Z" fill="#0033A0"/>
<path d="M131.83 3.07859V7.32934C129.988 5.75473 128.009 4.88622 125.929 4.88622C123.849 4.88622 122.823 5.85711 122.823 7.23048C122.823 8.40262 123.266 9.3382 126.508 11.0787C130.909 13.4548 132.784 15.0965 132.784 18.5423C132.784 22.1893 129.783 24.8019 125.418 24.8019C122.996 24.8019 120.606 24.064 118.526 22.793V18.1751C120.574 20.2157 122.791 21.2537 125.043 21.2537C127.055 21.2537 128.286 20.1169 128.286 18.6764C128.286 17.236 127.843 16.3992 123.611 14.1574C120.61 12.4839 118.393 10.7116 118.393 7.36464C118.393 4.01771 121.225 1.37335 125.727 1.37335C127.98 1.37335 130.128 2.00885 131.834 3.07859H131.83Z" fill="#0033A0"/>
<path d="M150.046 3.07859V7.32934C148.204 5.75473 146.225 4.88622 144.145 4.88622C142.065 4.88622 141.039 5.85711 141.039 7.23048C141.039 8.40262 141.482 9.3382 144.724 11.0787C149.125 13.4548 151 15.0965 151 18.5423C151 22.1893 147.999 24.8019 143.634 24.8019C141.212 24.8019 138.822 24.064 136.743 22.793V18.1751C138.79 20.2157 141.007 21.2537 143.26 21.2537C145.271 21.2537 146.502 20.1169 146.502 18.6764C146.502 17.236 146.059 16.3992 141.827 14.1574C138.826 12.4839 136.609 10.7116 136.609 7.36464C136.609 4.01771 139.441 1.37335 143.943 1.37335C146.196 1.37335 148.344 2.00885 150.05 3.07859H150.046Z" fill="#0033A0"/>
<path d="M94.0381 23.5945L105.935 20.1381L115.658 27.7005L109.339 0L94.0381 23.5945Z" fill="#FF671F"/>
<path d="M26.4569 33.8894L26.2697 35.1357C25.7335 35.0122 25.1866 34.9521 24.6144 34.9521C21.8723 34.9521 20.3177 36.5409 20.3177 38.4721C20.3177 39.9514 21.2893 41.014 22.6244 41.014C23.1714 41.014 23.7939 40.8552 24.2329 40.661L24.4309 39.3053H23.1354L23.2973 38.2285H25.9531L25.4672 41.5401C24.4848 41.992 23.4628 42.2603 22.5524 42.2603C20.3717 42.2603 18.8135 40.7069 18.8135 38.5674C18.8135 36.1243 20.5336 33.7023 24.6576 33.7023C25.4421 33.7023 26.1042 33.7871 26.4641 33.8859L26.4569 33.8894Z" fill="#FF671F"/>
<path d="M28.9256 36.4915L28.4397 39.8278C28.3894 40.1703 28.3642 40.3291 28.3642 40.5621C28.3642 40.954 28.5765 41.2224 28.9759 41.2224C29.4006 41.2224 29.8468 40.9293 30.6097 40.0961L31.1315 36.4915H32.463L31.6281 42.1509H30.2966L30.4334 41.2718C29.6489 41.9814 29.0515 42.2497 28.4901 42.2497C27.4681 42.2497 27.0183 41.5789 27.0183 40.661C27.0183 40.4668 27.0543 40.1491 27.0939 39.8913L27.5905 36.495H28.922L28.9256 36.4915Z" fill="#FF671F"/>
<path d="M35.3633 36.4914L34.5392 42.1508H33.1934L34.0282 36.4914H35.3597H35.3633ZM35.626 34.8285C35.626 35.2063 35.3129 35.5135 34.9279 35.5135C34.5428 35.5135 34.2298 35.2063 34.2298 34.8285C34.2298 34.4508 34.5428 34.1683 34.9279 34.1683C35.3129 34.1683 35.626 34.4614 35.626 34.8285Z" fill="#FF671F"/>
<path d="M42.1537 33.8153L40.9446 42.1261C40.3329 42.2497 39.8471 42.3097 39.2641 42.3097C37.1193 42.3097 36.1621 41.1235 36.1621 39.6936C36.1621 37.9954 37.508 36.3432 39.6995 36.3432C39.9478 36.3432 40.2357 36.3537 40.4588 36.3926L40.8187 33.8118H42.1501L42.1537 33.8153ZM39.3001 41.2223C39.462 41.2223 39.5988 41.2082 39.7499 41.187L40.2969 37.4694C40.1961 37.4447 40.0486 37.42 39.8471 37.42C38.4256 37.42 37.5548 38.4332 37.5548 39.6689C37.5548 40.6716 38.2385 41.2223 39.3001 41.2223Z" fill="#FF671F"/>
<path d="M44.6333 36.4914L43.8092 42.1508H42.4634L43.2982 36.4914H44.6297H44.6333ZM44.896 34.8285C44.896 35.2063 44.5829 35.5135 44.1979 35.5135C43.8128 35.5135 43.4998 35.2063 43.4998 34.8285C43.4998 34.4508 43.8128 34.1683 44.1979 34.1683C44.5829 34.1683 44.896 34.4614 44.896 34.8285Z" fill="#FF671F"/>
<path d="M50.8264 38.0696C50.8264 38.2638 50.776 38.7051 50.7508 38.9134L50.2398 42.1509H48.9083L49.4193 38.9134C49.4445 38.6698 49.4949 38.3379 49.4949 38.179C49.4949 37.6918 49.2466 37.4694 48.8975 37.4694C48.3973 37.4694 47.8251 37.8719 47.2422 38.5956L46.706 42.1544H45.3745L46.2202 36.495H47.5517L47.4005 37.3988C48.0842 36.7139 48.7212 36.3961 49.3329 36.3961C50.2938 36.3961 50.8264 37.021 50.8264 38.0696Z" fill="#FF671F"/>
<path d="M57.2931 36.4915L57.1564 37.4694H56.1344C56.3719 37.8366 56.4475 38.1649 56.4475 38.4968C56.4475 39.5595 55.7745 40.4774 54.2919 40.6222C53.2087 40.7704 53.072 40.8552 53.072 41.1341C53.072 41.413 53.5218 41.4871 54.2559 41.6848L54.7561 41.8084C55.9149 42.0909 56.3503 42.6169 56.3503 43.3371C56.3503 44.0574 55.6918 45 53.8205 45C52.0896 45 51.1899 44.4139 51.1899 43.556C51.1899 43.03 51.6002 42.6134 52.7481 42.3451C52.1616 42.112 51.8269 41.8084 51.8269 41.3565C51.8269 40.7563 52.3883 40.4774 52.9964 40.3185C52.3847 40.0502 51.9384 39.45 51.9384 38.6698C51.9384 37.4341 52.8093 36.495 54.3171 36.495H57.2931V36.4915ZM53.8421 44.1068C54.6518 44.1068 55.062 43.8385 55.062 43.4819C55.062 43.1535 54.7885 42.9205 53.6802 42.7228C52.8093 42.9558 52.4207 43.1747 52.4207 43.5172C52.4207 43.895 53.0684 44.1033 53.8421 44.1033V44.1068ZM54.1264 39.7183C54.7741 39.7183 55.1844 39.1076 55.1844 38.458C55.1844 37.8083 54.7849 37.42 54.2631 37.42C53.5794 37.42 53.2051 38.0555 53.2051 38.7016C53.2051 39.277 53.5434 39.7148 54.1264 39.7148V39.7183Z" fill="#FF671F"/>
<path d="M64.9796 36.9539L64.8177 38.0661C64.1195 37.5894 63.5834 37.4059 63.0975 37.4059C62.7125 37.4059 62.4858 37.5789 62.4858 37.8931C62.4858 38.1367 62.6477 38.3203 63.2451 38.7475C63.9432 39.2347 64.6521 39.6901 64.6521 40.6786C64.6521 41.6672 63.8425 42.3027 62.7089 42.3027C62.0252 42.3027 61.3378 42.0591 60.7405 41.6672L60.9384 40.5445C61.5502 40.9717 62.1583 41.2541 62.7089 41.2541C63.1335 41.2541 63.3566 41.0211 63.3566 40.7175C63.3566 40.3256 62.9212 40.0467 62.1871 39.5312C61.4386 38.9805 61.1903 38.4933 61.1903 37.9672C61.1903 37.0493 61.9136 36.3538 63.0975 36.3538C63.7201 36.3538 64.3427 36.5373 64.9796 36.9539Z" fill="#FF671F"/>
<path d="M71.27 36.502L70.4351 42.1509H69.1145L69.2008 41.526C68.715 41.992 68.2292 42.2356 67.6678 42.2356C66.5847 42.2356 65.7246 41.3177 65.7246 39.8878C65.7246 38.0413 66.9841 36.329 69.6255 36.329C70.212 36.329 70.9102 36.4279 71.27 36.502ZM68.0565 41.1482C68.5423 41.1482 69.0533 40.841 69.3664 40.4527L69.827 37.4094C69.7262 37.3988 69.5895 37.3847 69.4419 37.3847C67.8478 37.3847 67.0993 38.7651 67.0993 39.8772C67.0993 40.6963 67.5095 41.1482 68.0601 41.1482H68.0565Z" fill="#FF671F"/>
<path d="M77.0025 33.9495L76.8405 35.051C76.4807 34.878 76.1172 34.8074 75.7574 34.8074C74.8865 34.8074 74.4727 35.2487 74.3107 36.3961L74.2999 36.495H75.7682L75.6062 37.533H74.138L73.1772 44.5128H71.8457L72.8065 37.533H71.8961L72.058 36.495H72.9685L72.9937 36.3008C73.2815 34.1613 74.5015 33.7094 75.6494 33.7094C76.11 33.7094 76.585 33.7941 77.0061 33.953L77.0025 33.9495Z" fill="#FF671F"/>
<path d="M80.8135 38.751C80.8135 39.0087 80.7883 39.217 80.7631 39.3865H77.125C77.1142 39.5806 77.1142 39.6795 77.1142 39.7889C77.1142 40.6822 77.636 41.3035 78.4457 41.3035C78.9674 41.3035 79.5792 41.1094 80.4896 40.5339L80.2917 41.7449C79.6548 42.1226 79.0466 42.3062 78.3593 42.3062C76.7399 42.3062 75.7683 41.2541 75.7683 39.616C75.7683 37.8683 76.963 36.329 78.6076 36.329C79.8527 36.329 80.8135 37.2329 80.8135 38.751ZM79.518 38.5674V38.4932C79.518 37.8083 79.1942 37.3211 78.5824 37.3211C78.0102 37.3211 77.5604 37.7377 77.2977 38.5674H79.5144H79.518Z" fill="#FF671F"/>
<path d="M90.3821 37.5294C90.9938 36.8092 91.7171 36.3926 92.4261 36.3926C93.4229 36.3926 93.9087 37.0775 93.9087 37.9813C93.9087 38.2496 93.8583 38.6168 93.8331 38.8004L93.3473 42.1509H92.0122L92.5124 38.6909C92.5376 38.5179 92.5628 38.2991 92.5628 38.1649C92.5628 37.6777 92.3397 37.4058 92.0014 37.4058C91.5516 37.4058 90.9542 37.8472 90.4073 38.5321L89.8711 42.1509H88.5504L89.011 39.0334C89.0722 38.6556 89.0974 38.2885 89.0974 38.1296C89.0974 37.6636 88.8599 37.42 88.5 37.42C88.0646 37.42 87.5284 37.8472 86.9418 38.5568L86.4056 42.1509H85.0706L85.9054 36.4914H87.2405L87.1146 37.3952C87.7515 36.7103 88.3849 36.3926 89.0326 36.3926C89.7163 36.3926 90.2165 36.8092 90.3785 37.5294H90.3821Z" fill="#FF671F"/>
<path d="M96.9998 36.4914L96.1757 42.1508H94.8298L95.6647 36.4914H96.9998ZM97.2589 34.8285C97.2589 35.2063 96.9458 35.5135 96.5607 35.5135C96.1757 35.5135 95.8626 35.2063 95.8626 34.8285C95.8626 34.4508 96.1757 34.1683 96.5607 34.1683C96.9458 34.1683 97.2589 34.4614 97.2589 34.8285Z" fill="#FF671F"/>
<path d="M103.265 36.4915L103.128 37.4694H102.106C102.344 37.8366 102.419 38.1649 102.419 38.4968C102.419 39.5595 101.746 40.4774 100.264 40.6222C99.1806 40.7704 99.0439 40.8552 99.0439 41.1341C99.0439 41.413 99.4937 41.4871 100.228 41.6848L100.724 41.8084C101.883 42.0909 102.319 42.6169 102.319 43.3371C102.319 44.0574 101.66 45 99.7888 45C98.0578 45 97.1582 44.4139 97.1582 43.556C97.1582 43.03 97.5684 42.6134 98.7164 42.3451C98.1298 42.112 97.7952 41.8084 97.7952 41.3565C97.7952 40.7563 98.3565 40.4774 98.9647 40.3185C98.3529 40.0502 97.9067 39.45 97.9067 38.6698C97.9067 37.4341 98.7776 36.495 100.285 36.495H103.261L103.265 36.4915ZM99.814 44.1068C100.624 44.1068 101.034 43.8385 101.034 43.4819C101.034 43.1535 100.76 42.9205 99.652 42.7228C98.7812 42.9558 98.3925 43.1747 98.3925 43.5172C98.3925 43.895 99.0403 44.1033 99.814 44.1033V44.1068ZM100.102 39.7183C100.75 39.7183 101.16 39.1076 101.16 38.458C101.16 37.8083 100.76 37.42 100.239 37.42C99.5549 37.42 99.1806 38.0555 99.1806 38.7016C99.1806 39.277 99.5153 39.7148 100.102 39.7148V39.7183Z" fill="#FF671F"/>
<path d="M107.85 36.735L107.202 38.006C107.004 37.7871 106.817 37.6883 106.565 37.6883C106.003 37.6883 105.618 38.2638 105.244 38.9487L104.769 42.1509H103.448L104.283 36.4914H105.604L105.453 37.5788C106.039 36.7244 106.5 36.3926 106.961 36.3926C107.31 36.3926 107.583 36.5515 107.846 36.735H107.85Z" fill="#FF671F"/>
<path d="M113.334 36.502L112.499 42.1509H111.178L111.265 41.526C110.779 41.992 110.293 42.2356 109.732 42.2356C108.648 42.2356 107.788 41.3177 107.788 39.8878C107.788 38.0413 109.048 36.329 111.689 36.329C112.276 36.329 112.974 36.4279 113.334 36.502ZM110.117 41.1482C110.602 41.1482 111.113 40.841 111.423 40.4527L111.884 37.4094C111.783 37.3988 111.646 37.3847 111.498 37.3847C109.904 37.3847 109.156 38.7651 109.156 39.8772C109.156 40.6963 109.566 41.1482 110.117 41.1482Z" fill="#FF671F"/>
<path d="M116.785 35.344L116.587 36.4914H118.055L117.893 37.5294H116.374L115.964 39.7536C115.903 40.1067 115.838 40.4385 115.838 40.608C115.838 40.961 116.011 41.1446 116.324 41.1446C116.684 41.1446 117.209 40.9611 117.519 40.7422L117.321 42.0026C116.885 42.2214 116.436 42.3097 115.975 42.3097C114.989 42.3097 114.492 41.7589 114.492 40.9152C114.492 40.6963 114.528 40.3538 114.604 39.9478L115.039 37.5294H114.007L114.169 36.4914H115.241L115.453 35.344H116.785Z" fill="#FF671F"/>
<path d="M120.47 36.4914L119.646 42.1508H118.3L119.135 36.4914H120.47ZM120.732 34.8285C120.732 35.2063 120.419 35.5135 120.034 35.5135C119.649 35.5135 119.336 35.2063 119.336 34.8285C119.336 34.4508 119.649 34.1683 120.034 34.1683C120.419 34.1683 120.732 34.4614 120.732 34.8285Z" fill="#FF671F"/>
<path d="M126.562 38.8887C126.562 40.6116 125.49 42.3097 123.647 42.3097C122.139 42.3097 121.269 41.3318 121.269 39.8172C121.269 37.8966 122.438 36.3326 124.223 36.3326C125.569 36.3326 126.566 37.2752 126.566 38.8887H126.562ZM123.672 41.1835C124.669 41.1835 125.191 40.0467 125.191 38.8357C125.191 37.9072 124.781 37.4412 124.119 37.4412C122.949 37.4412 122.636 39.1535 122.636 39.8737C122.636 40.7034 123.01 41.18 123.669 41.18L123.672 41.1835Z" fill="#FF671F"/>
<path d="M132.806 38.0696C132.806 38.2638 132.755 38.7051 132.73 38.9134L132.219 42.1509H130.888L131.399 38.9134C131.424 38.6698 131.474 38.3379 131.474 38.179C131.474 37.6918 131.226 37.4694 130.877 37.4694C130.38 37.4694 129.805 37.8719 129.222 38.5956L128.685 42.1544H127.35L128.196 36.495H129.527L129.376 37.3988C130.06 36.7139 130.697 36.3961 131.309 36.3961C132.27 36.3961 132.806 37.021 132.806 38.0696Z" fill="#FF671F"/>
</g>
<defs>
<clipPath id="clip0_182_944">
<rect width="151" height="45" fill="white"/>
</clipPath>
</defs>
</svg>
