<svg width="25" height="32" viewBox="0 0 25 32" fill="none" xmlns="http://www.w3.org/2000/svg">
<g clip-path="url(#clip0_128_2795)">
<path d="M9.02726 20.5037L9.02602 27.3675C9.02602 29.9251 7.00609 32.0001 4.51363 32.0001C2.02118 32.0001 0 29.9251 0 27.3675V20.7069C0 15.4877 4.13636 11.2399 9.22146 11.2399H16.4081C16.6345 11.2399 16.8559 11.2564 17.0724 11.2894C12.5489 11.7923 9.0285 15.7264 9.0285 20.5025L9.02726 20.5037Z" fill="#00B5E8"/>
<g style="mix-blend-mode:overlay" opacity="0.4">
<path d="M12.2025 12.2075C9.74964 14.0311 8.15892 16.9683 8.08718 20.27L8.08471 20.2751V20.505L8.08223 27.3662C8.08223 28.9866 7.05309 30.3644 5.62936 30.847C6.65974 30.2031 7.34996 29.0386 7.34996 27.7116V20.8504L7.35243 20.6205L7.35491 20.6154C7.41923 17.663 8.39147 15.0013 10.3496 13.1675C10.5821 12.9491 10.4312 12.5516 10.117 12.5516H8.48795C7.3982 12.5516 6.35669 12.7688 5.40176 13.165C6.5447 12.5516 7.8435 12.205 9.21899 12.205H12.2013L12.2025 12.2075Z" fill="#1F1E21"/>
</g>
<g style="mix-blend-mode:overlay">
<path d="M16.9277 11.2907C12.4041 11.7936 8.88378 15.7277 8.88378 20.5038L8.88254 27.3675C8.88254 29.9251 6.8626 32.0001 4.37014 32.0001C4.29345 32.0001 4.21676 31.9988 4.14007 31.995C6.55831 31.882 8.48548 29.8311 8.48548 27.3205V20.3882L8.48795 20.3869C8.48795 15.9106 11.5494 12.1656 15.64 11.2424H16.2659C16.4923 11.2424 16.7137 11.2589 16.9301 11.292L16.9277 11.2907Z" fill="white"/>
</g>
<path d="M20.9193 15.8724C20.9193 17.8344 19.7318 19.5107 18.0545 20.1862C17.5783 20.3793 17.0613 20.4897 16.5232 20.5037H9.02603C9.02603 15.7277 12.5476 11.7935 17.0699 11.2906C17.3705 11.3364 17.6612 11.4113 17.9407 11.5154C17.9778 11.5294 18.0174 11.5446 18.0545 11.5599C19.7318 12.2354 20.9193 13.913 20.9193 15.8737V15.8724Z" fill="#017DC0"/>
<path opacity="0.3" d="M17.942 11.5154C12.7579 11.7554 9.85231 15.4699 9.85231 20.5037H9.02726C9.02726 15.7277 12.5489 11.7935 17.0711 11.2906C17.3717 11.3364 17.6624 11.4113 17.942 11.5154Z" fill="#1F1E21"/>
<path d="M15.2392 0.0152588C6.76117 0.386067 0 7.55969 0 16.3537V9.48103C0 4.25416 4.12894 0.0152588 9.22023 0.0152588H15.238H15.2392Z" fill="#017DC0"/>
<path d="M24.9999 4.58687C25.0333 7.17364 22.9998 9.28039 20.4888 9.28039H9.02474C5.48335 9.35277 2.40582 11.4024 0.797783 14.3942C0.566474 14.8235 0.367325 15.2705 0.200336 15.7352C0.18673 15.7721 0.173124 15.8089 0.160754 15.8457C0.160754 15.8457 0.160754 15.8483 0.160754 15.8495C0.147148 15.8876 0.133541 15.9283 0.119935 15.9676C0.0927218 16.0476 0.0667458 16.1315 0.0407699 16.2191L0.00118749 16.355C-4.94558e-05 7.55968 6.76112 0.386067 15.2392 0.0152588H20.4208C22.9008 0.0152588 24.9678 2.04074 24.9999 4.58687Z" fill="#00B5E8"/>
<g style="mix-blend-mode:overlay">
<path d="M15.9851 0.0152588C8.23928 0.35432 1.59933 6.30503 0.614715 14.7523C0.383405 15.1816 0.367325 15.2705 0.200336 15.7352C0.18673 15.7721 0.173124 15.8089 0.160754 15.8457C0.160754 15.8457 0.160754 15.8483 0.160754 15.8495C0.147148 15.8876 0.133541 15.927 0.119935 15.9676C0.0927218 16.0476 0.0667459 16.1315 0.0407699 16.2191C0.0271634 16.2635 0.013557 16.308 0.00118749 16.355C-4.94559e-05 7.55968 6.76112 0.386067 15.2392 0.0152588H15.9851Z" fill="white"/>
</g>
<path d="M15.2392 0.0152387H15.9294V0C15.6981 0 15.4681 0.00507957 15.2392 0.0152387Z" fill="#017DC0"/>
<g style="mix-blend-mode:overlay" opacity="0.4">
<path d="M24.0574 4.59949C24.0698 5.58746 23.7049 6.51957 23.0283 7.22309C22.6238 7.64469 22.1365 7.952 21.6046 8.13233C21.8532 7.9774 22.0857 7.78819 22.296 7.56977C22.9714 6.86625 23.3375 5.93542 23.3252 4.94617C23.3004 2.95117 21.6677 1.32825 19.6873 1.32825H14.5255C12.7022 1.41079 10.9359 1.82732 9.29692 2.54734C11.1363 1.61524 13.1587 1.07681 15.2565 0.981567H20.4183C22.3987 0.981567 24.0302 2.60449 24.0562 4.59949H24.0574Z" fill="#1F1E21"/>
</g>
<path opacity="0.3" d="M15.2392 0.0152588C6.76117 0.386067 0 7.55969 0 16.3537V12.6837C0.643214 9.71977 2.06571 6.98188 4.15739 4.74688C6.39008 2.36075 9.20662 0.734017 12.2879 0.0152588H15.2392Z" fill="#1F1E21"/>
</g>
<defs>
<clipPath id="clip0_128_2795">
<rect width="25" height="32" fill="white"/>
</clipPath>
</defs>
</svg>
