<svg width="24" height="25" viewBox="0 0 24 25" fill="none" xmlns="http://www.w3.org/2000/svg">
<path d="M12.0007 15.2833C11.6815 15.2833 11.4094 15.1708 11.1845 14.9459C10.9598 14.7212 10.8474 14.4492 10.8474 14.1298C10.8474 13.8105 10.9598 13.5385 11.1845 13.3135C11.4094 13.0887 11.6815 12.9764 12.0007 12.9764C12.3199 12.9764 12.592 13.0887 12.8169 13.3135C13.0416 13.5385 13.154 13.8105 13.154 14.1298C13.154 14.4492 13.0416 14.7212 12.8169 14.9459C12.592 15.1708 12.3199 15.2833 12.0007 15.2833ZM6.78531 15.2833C6.46606 15.2833 6.194 15.1708 5.96909 14.9459C5.74438 14.7212 5.63205 14.4492 5.63205 14.1298C5.63205 13.8105 5.74438 13.5385 5.96909 13.3135C6.194 13.0887 6.46606 12.9764 6.78531 12.9764C7.10452 12.9764 7.37659 13.0887 7.6015 13.3135C7.8262 13.5385 7.93855 13.8105 7.93855 14.1298C7.93855 14.4492 7.8262 14.7212 7.6015 14.9459C7.37659 15.1708 7.10452 15.2833 6.78531 15.2833ZM17.2161 15.2833C16.8969 15.2833 16.6248 15.1708 16.3999 14.9459C16.1752 14.7212 16.0629 14.4492 16.0629 14.1298C16.0629 13.8105 16.1752 13.5385 16.3999 13.3135C16.6248 13.0887 16.8969 12.9764 17.2161 12.9764C17.5353 12.9764 17.8074 13.0887 18.0323 13.3135C18.257 13.5385 18.3694 13.8105 18.3694 14.1298C18.3694 14.4492 18.257 14.7212 18.0323 14.9459C17.8074 15.1708 17.5353 15.2833 17.2161 15.2833ZM12.0007 20.3983C11.6815 20.3983 11.4094 20.2859 11.1845 20.0609C10.9598 19.8362 10.8474 19.5643 10.8474 19.245C10.8474 18.9257 10.9598 18.6536 11.1845 18.4288C11.4094 18.2039 11.6815 18.0914 12.0007 18.0914C12.3199 18.0914 12.592 18.2039 12.8169 18.4288C13.0416 18.6536 13.154 18.9257 13.154 19.245C13.154 19.5643 13.0416 19.8362 12.8169 20.0609C12.592 20.2859 12.3199 20.3983 12.0007 20.3983ZM6.78531 20.3983C6.46606 20.3983 6.194 20.2859 5.96909 20.0609C5.74438 19.8362 5.63205 19.5643 5.63205 19.245C5.63205 18.9257 5.74438 18.6536 5.96909 18.4288C6.194 18.2039 6.46606 18.0914 6.78531 18.0914C7.10452 18.0914 7.37659 18.2039 7.6015 18.4288C7.8262 18.6536 7.93855 18.9257 7.93855 19.245C7.93855 19.5643 7.8262 19.8362 7.6015 20.0609C7.37659 20.2859 7.10452 20.3983 6.78531 20.3983ZM17.2161 20.3983C16.8969 20.3983 16.6248 20.2859 16.3999 20.0609C16.1752 19.8362 16.0629 19.5643 16.0629 19.245C16.0629 18.9257 16.1752 18.6536 16.3999 18.4288C16.6248 18.2039 16.8969 18.0914 17.2161 18.0914C17.5353 18.0914 17.8074 18.2039 18.0323 18.4288C18.257 18.6536 18.3694 18.9257 18.3694 19.245C18.3694 19.5643 18.257 19.8362 18.0323 20.0609C17.8074 20.2859 17.5353 20.3983 17.2161 20.3983ZM3.27501 24.9618C2.61635 24.9618 2.05884 24.7336 1.60249 24.2772C1.14615 23.8209 0.917969 23.2634 0.917969 22.6047V5.15332C0.917969 4.49475 1.14615 3.93726 1.60249 3.48083C2.05884 3.02454 2.61635 2.79639 3.27501 2.79639H5.0802V0.0383301H7.08617V2.79639H16.9654V0.0383301H18.9212V2.79639H20.7264C21.3851 2.79639 21.9426 3.02454 22.3989 3.48083C22.8553 3.93726 23.0834 4.49475 23.0834 5.15332V22.6047C23.0834 23.2634 22.8553 23.8209 22.3989 24.2772C21.9426 24.7336 21.3851 24.9618 20.7264 24.9618H3.27501ZM3.27501 23.006H20.7264C20.8268 23.006 20.9187 22.9641 21.0022 22.8805C21.0858 22.7971 21.1277 22.7052 21.1277 22.6047V10.3688H2.87375V22.6047C2.87375 22.7052 2.91559 22.7971 2.99925 22.8805C3.0827 22.9641 3.17461 23.006 3.27501 23.006Z" fill="#FF671F"/>
</svg>
