<svg width="27" height="22" viewBox="0 0 27 22" fill="none" xmlns="http://www.w3.org/2000/svg">
<path d="M6.9875 2.6C7.4275 2.01334 7.6475 1.72 7.92631 1.50844C8.17326 1.32106 8.45289 1.18124 8.75096 1.09611C9.0875 1 9.45417 1 10.1875 1H19.6875C21.7877 1 22.8378 1 23.64 1.40873C24.3456 1.76825 24.9193 2.34193 25.2788 3.04753C25.6875 3.8497 25.6875 4.8998 25.6875 7V15C25.6875 17.1002 25.6875 18.1503 25.2788 18.9525C24.9193 19.6581 24.3456 20.2317 23.64 20.5913C22.8378 21 21.7877 21 19.6875 21H10.1875C9.45417 21 9.0875 21 8.75096 20.9039C8.45289 20.8188 8.17326 20.6789 7.92631 20.4916C7.6475 20.28 7.4275 19.9867 6.9875 19.4L1.5875 12.2C1.26476 11.7697 1.10339 11.5545 1.04118 11.3182C0.986273 11.1096 0.986273 10.8904 1.04118 10.6818C1.10339 10.4455 1.26476 10.2303 1.5875 9.8L6.9875 2.6Z" fill="#D92D20" stroke="#E4E7EC" stroke-linecap="round" stroke-linejoin="round"/>
<path d="M19.79 7.25L12.29 14.75M12.29 7.25L19.79 14.75" stroke="#E4E7EC" stroke-linecap="round" stroke-linejoin="round"/>
</svg>
