<svg width="54" height="54" viewBox="0 0 54 54" fill="none" xmlns="http://www.w3.org/2000/svg">
<g filter="url(#filter0_d_32_4130)">
<path d="M3 10C3 4.47715 7.47715 0 13 0H41C46.5229 0 51 4.47715 51 10V38C51 43.5229 46.5228 48 41 48H13C7.47715 48 3 43.5228 3 38V10Z" fill="#FFFDF6"/>
</g>
<path d="M18.3 34.6915H23.4309V25.5465H31.5691V34.6915H36.7V20.8407L27.5 13.8856L18.3 20.8407V34.6915ZM16 37V19.6864L27.5 11L39 19.6864V37H29.2691V27.855H25.7309V37H16Z" fill="#9C9B98"/>
<defs>
<filter id="filter0_d_32_4130" x="0" y="0" width="54" height="54" filterUnits="userSpaceOnUse" color-interpolation-filters="sRGB">
<feFlood flood-opacity="0" result="BackgroundImageFix"/>
<feColorMatrix in="SourceAlpha" type="matrix" values="0 0 0 0 0 0 0 0 0 0 0 0 0 0 0 0 0 0 127 0" result="hardAlpha"/>
<feOffset dy="3"/>
<feGaussianBlur stdDeviation="1.5"/>
<feComposite in2="hardAlpha" operator="out"/>
<feColorMatrix type="matrix" values="0 0 0 0 0 0 0 0 0 0 0 0 0 0 0 0 0 0 0.0784314 0"/>
<feBlend mode="normal" in2="BackgroundImageFix" result="effect1_dropShadow_32_4130"/>
<feBlend mode="normal" in="SourceGraphic" in2="effect1_dropShadow_32_4130" result="shape"/>
</filter>
</defs>
</svg>
