<svg width="18" height="18" viewBox="0 0 18 18" fill="none" xmlns="http://www.w3.org/2000/svg">
<path d="M8.3925 13.5001H9.74251V8.10004H8.3925V13.5001ZM8.9996 6.435C9.20987 6.435 9.38626 6.36609 9.52876 6.22803C9.67125 6.08997 9.74251 5.91907 9.74251 5.71509C9.74251 5.49829 9.67139 5.31659 9.52916 5.16998C9.38691 5.02325 9.21066 4.95001 9.00041 4.95001C8.79014 4.95001 8.61375 5.02325 8.47125 5.16998C8.32876 5.31659 8.2575 5.49829 8.2575 5.71509C8.2575 5.91907 8.32862 6.08997 8.47085 6.22803C8.6131 6.36609 8.78934 6.435 8.9996 6.435ZM9.00599 18C7.76498 18 6.59872 17.7637 5.50724 17.2913C4.41575 16.8188 3.46125 16.1738 2.64375 15.3563C1.82626 14.5388 1.18126 13.5837 0.708763 12.4911C0.236252 11.3985 0 10.231 0 8.98877C0 7.74646 0.236252 6.57904 0.708763 5.48645C1.18126 4.3938 1.82626 3.4425 2.64375 2.63251C3.46125 1.82251 4.41631 1.18127 5.50893 0.708801C6.60152 0.236267 7.76897 0 9.01125 0C10.2535 0 11.421 0.236267 12.5136 0.708801C13.6062 1.18127 14.5575 1.82251 15.3675 2.63251C16.1775 3.4425 16.8187 4.39508 17.2913 5.49005C17.7638 6.58502 18 7.75299 18 8.99408C18 10.235 17.7638 11.4013 17.2913 12.4928C16.8187 13.5843 16.1775 14.5374 15.3675 15.3521C14.5575 16.1669 13.605 16.8118 12.51 17.2872C11.415 17.7623 10.247 18 9.00599 18ZM9.01125 16.65C11.1338 16.65 12.9375 15.9038 14.4225 14.4113C15.9075 12.9188 16.65 11.1113 16.65 8.98877C16.65 6.86627 15.9089 5.06256 14.4267 3.57751C12.9445 2.09253 11.1356 1.35004 9.00001 1.35004C6.88501 1.35004 5.08126 2.09113 3.58876 3.57336C2.09626 5.05554 1.35 6.86444 1.35 9.00006C1.35 11.1151 2.09626 12.9188 3.58876 14.4113C5.08126 15.9038 6.88876 16.65 9.01125 16.65Z" fill="#6F6E6E"/>
</svg>
