<svg width="18" height="18" viewBox="0 0 18 18" fill="none" xmlns="http://www.w3.org/2000/svg">
<path d="M15.75 14.6338L12.9902 11.8564C13.4004 11.3408 13.7139 10.7666 13.9307 10.1338C14.1475 9.50098 14.2559 8.85059 14.2559 8.18262C14.2559 7.3623 14.0977 6.58301 13.7812 5.84473C13.4648 5.11816 13.0342 4.48535 12.4893 3.94629C11.9443 3.40723 11.3086 2.97949 10.582 2.66309C9.85547 2.34668 9.07617 2.18848 8.24414 2.18848C7.42383 2.18848 6.64453 2.34668 5.90625 2.66309C5.17969 2.97949 4.54688 3.40723 4.00781 3.94629C3.46875 4.48535 3.04102 5.11816 2.72461 5.84473C2.4082 6.58301 2.25 7.3623 2.25 8.18262C2.25 9.01465 2.4082 9.79395 2.72461 10.5205C3.04102 11.2471 3.46875 11.8828 4.00781 12.4277C4.54688 12.9727 5.17969 13.4033 5.90625 13.7197C6.64453 14.0361 7.42383 14.1943 8.24414 14.1943C8.91211 14.1943 9.5625 14.0859 10.1953 13.8691C10.8281 13.6523 11.4023 13.3389 11.918 12.9287L14.6953 15.6885L15.75 14.6338ZM3.74414 8.18262C3.74414 7.56152 3.86133 6.98145 4.0957 6.44238C4.3418 5.8916 4.66699 5.41406 5.07129 5.00977C5.47559 4.60547 5.95312 4.28027 6.50391 4.03418C7.04297 3.7998 7.62305 3.68262 8.24414 3.68262C8.86523 3.68262 9.45117 3.7998 10.002 4.03418C10.5527 4.28027 11.0303 4.60547 11.4346 5.00977C11.8389 5.41406 12.1582 5.8916 12.3926 6.44238C12.627 6.98145 12.7441 7.56152 12.7441 8.18262C12.7441 8.80371 12.627 9.38965 12.3926 9.94043C12.1582 10.4912 11.8389 10.9688 11.4346 11.373C11.0303 11.7773 10.5527 12.0967 10.002 12.3311C9.45117 12.5654 8.86523 12.6826 8.24414 12.6826C7.62305 12.6826 7.04297 12.5654 6.50391 12.3311C5.95312 12.0967 5.47559 11.7773 5.07129 11.373C4.66699 10.9688 4.3418 10.4912 4.0957 9.94043C3.86133 9.38965 3.74414 8.80371 3.74414 8.18262Z" fill="white"/>
</svg>
