<svg width="176" height="176" viewBox="0 0 176 176" fill="none" xmlns="http://www.w3.org/2000/svg">
<g filter="url(#filter0_d_1_11533)">
<path d="M8 85C8 40.8172 43.8172 5 88 5C132.183 5 168 40.8172 168 85C168 129.183 132.183 165 88 165C43.8172 165 8 129.183 8 85Z" fill="white"/>
</g>
<g filter="url(#filter1_d_1_11533)">
<path d="M16.4209 85C16.4209 45.468 48.4679 13.421 87.9998 13.421C127.532 13.421 159.579 45.468 159.579 85C159.579 124.532 127.532 156.579 87.9998 156.579C48.4679 156.579 16.4209 124.532 16.4209 85Z" fill="#0A8754" fill-opacity="0.1" shape-rendering="crispEdges"/>
</g>
<path d="M82.8614 99.1118L108.048 73.9254L103.954 69.9205L82.8614 91.013L72.1817 80.3333L68.1768 84.3382L82.8614 99.1118Z" fill="#0A8754"/>
<defs>
<filter id="filter0_d_1_11533" x="0.5" y="0.5" width="175" height="175" filterUnits="userSpaceOnUse" color-interpolation-filters="sRGB">
<feFlood flood-opacity="0" result="BackgroundImageFix"/>
<feColorMatrix in="SourceAlpha" type="matrix" values="0 0 0 0 0 0 0 0 0 0 0 0 0 0 0 0 0 0 127 0" result="hardAlpha"/>
<feOffset dy="3"/>
<feGaussianBlur stdDeviation="3.75"/>
<feComposite in2="hardAlpha" operator="out"/>
<feColorMatrix type="matrix" values="0 0 0 0 0 0 0 0 0 0 0 0 0 0 0 0 0 0 0.0588235 0"/>
<feBlend mode="normal" in2="BackgroundImageFix" result="effect1_dropShadow_1_11533"/>
<feBlend mode="normal" in="SourceGraphic" in2="effect1_dropShadow_1_11533" result="shape"/>
</filter>
<filter id="filter1_d_1_11533" x="8.9209" y="8.92102" width="158.158" height="158.158" filterUnits="userSpaceOnUse" color-interpolation-filters="sRGB">
<feFlood flood-opacity="0" result="BackgroundImageFix"/>
<feColorMatrix in="SourceAlpha" type="matrix" values="0 0 0 0 0 0 0 0 0 0 0 0 0 0 0 0 0 0 127 0" result="hardAlpha"/>
<feOffset dy="3"/>
<feGaussianBlur stdDeviation="3.75"/>
<feComposite in2="hardAlpha" operator="out"/>
<feColorMatrix type="matrix" values="0 0 0 0 0 0 0 0 0 0 0 0 0 0 0 0 0 0 0.0588235 0"/>
<feBlend mode="normal" in2="BackgroundImageFix" result="effect1_dropShadow_1_11533"/>
<feBlend mode="normal" in="SourceGraphic" in2="effect1_dropShadow_1_11533" result="shape"/>
</filter>
</defs>
</svg>
