<svg width="335" height="68" viewBox="0 0 335 68" fill="none" xmlns="http://www.w3.org/2000/svg">
  <g fill="#0033A0">
    <path d="M37.5 60.625C33.6057 60.625 29.9479 59.8849 26.5266 58.4047C23.1052 56.924 20.1185 54.9177 17.5664 52.3859C15.0143 49.8536 13.0109 46.874 11.5562 43.4469C10.1021 40.0193 9.375 36.3383 9.375 32.4039C9.375 28.5096 10.1021 24.8547 11.5562 21.4391C13.0109 18.024 15.0143 15.0503 17.5664 12.518C20.1185 9.98623 23.1052 7.99612 26.5266 6.54772C29.9479 5.09923 33.6057 4.375 37.5 4.375C41.3943 4.375 45.0521 5.09923 48.4734 6.54772C51.8948 7.99612 54.8815 9.98623 57.4336 12.518C59.9857 15.0503 61.9891 18.024 63.4437 21.4391C64.8979 24.8547 65.625 28.5096 65.625 32.4039C65.625 36.3383 64.8979 40.0193 63.4437 43.4469C61.9891 46.874 59.9857 49.8536 57.4336 52.3859C54.8815 54.9177 51.8948 56.924 48.4734 58.4047C45.0521 59.8849 41.3943 60.625 37.5 60.625ZM37.5 58.3773C39.5635 56.0617 41.2372 53.663 42.5211 51.1812C43.805 48.699 44.8576 45.8313 45.6789 42.5781H29.3391C30.1885 45.9438 31.2552 48.8664 32.5391 51.3461C33.8229 53.8263 35.4766 56.1701 37.5 58.3773ZM34.225 58.0406C32.6021 56.2219 31.1318 53.9362 29.8141 51.1836C28.4958 48.4315 27.5042 45.563 26.8391 42.5781H13.6781C15.6974 46.9573 18.4297 50.4318 21.875 53.0016C25.3203 55.5719 29.437 57.2516 34.225 58.0406ZM40.8531 58.0227C45.2844 57.3857 49.3078 55.7091 52.9234 52.993C56.5396 50.2763 59.3391 46.8047 61.3219 42.5781H48.1789C47.3018 45.6313 46.2172 48.5138 44.925 51.2258C43.6328 53.9383 42.2755 56.2039 40.8531 58.0227ZM12.957 40.1742H26.4C26.1635 38.7279 26.0023 37.3646 25.9164 36.0844C25.8305 34.8047 25.7875 33.5779 25.7875 32.4039C25.7875 31.182 25.8336 29.9531 25.9258 28.7172C26.018 27.4813 26.182 26.1781 26.418 24.8078H12.957C12.5523 25.9776 12.2547 27.1974 12.0641 28.4672C11.874 29.7375 11.7789 31.0497 11.7789 32.4039C11.7789 33.7982 11.874 35.1393 12.0641 36.4273C12.2547 37.7154 12.5523 38.9643 12.957 40.1742ZM28.8398 40.1742H46.1781C46.4266 38.6398 46.5969 37.2747 46.6891 36.0789C46.7807 34.8831 46.8266 33.6581 46.8266 32.4039C46.8266 31.2018 46.7807 30.019 46.6891 28.8555C46.5969 27.6914 46.4266 26.3422 46.1781 24.8078H28.8398C28.5914 26.3422 28.4214 27.6914 28.3297 28.8555C28.2375 30.019 28.1914 31.2018 28.1914 32.4039C28.1914 33.6581 28.2375 34.8831 28.3297 36.0789C28.4214 37.2747 28.5914 38.6398 28.8398 40.1742ZM48.582 40.1742H62.043C62.4477 38.9643 62.7453 37.7154 62.9359 36.4273C63.126 35.1393 63.2211 33.7982 63.2211 32.4039C63.2211 31.0497 63.126 29.7375 62.9359 28.4672C62.7453 27.1974 62.4477 25.9776 62.043 24.8078H48.6602C48.8565 26.4302 49.0005 27.8435 49.0922 29.0477C49.1844 30.2513 49.2305 31.3701 49.2305 32.4039C49.2305 33.5898 49.1815 34.8008 49.0836 36.0367C48.9852 37.2727 48.818 38.6518 48.582 40.1742ZM48.1609 22.4039H61.3219C59.363 18.0086 56.6258 14.4828 53.1102 11.8266C49.5945 9.17032 45.4828 7.52794 40.775 6.89923C42.3979 8.90654 43.8453 11.2401 45.1172 13.9C46.3891 16.5604 47.4036 19.3951 48.1609 22.4039ZM29.3391 22.4039H45.757C44.944 19.2831 43.8503 16.4034 42.4758 13.7648C41.1018 11.1268 39.4432 8.7581 37.5 6.65862C35.6328 8.5055 34.0562 10.675 32.7703 13.1672C31.4844 15.6589 30.3406 18.7378 29.3391 22.4039ZM13.6781 22.4039H26.857C27.5904 19.431 28.5799 16.6276 29.8258 13.9937C31.0716 11.3594 32.512 9.00053 34.1469 6.91722C29.4391 7.58594 25.3464 9.23258 21.8688 11.857C18.3911 14.481 15.6609 17.9966 13.6781 22.4039Z"/>
    <path d="M95.04 49.42C92.7867 49.42 90.74 48.8267 88.9 47.64C87.0733 46.4533 85.6133 44.7333 84.52 42.48C83.44 40.2267 82.9 37.5 82.9 34.3C82.9 31.0867 83.4533 28.3533 84.56 26.1C85.68 23.8467 87.1867 22.12 89.08 20.92C90.9867 19.72 93.12 19.12 95.48 19.12C97.4133 19.12 99.0467 19.4467 100.38 20.1C101.727 20.7533 102.82 21.5933 103.66 22.62C104.513 23.6467 105.133 24.7333 105.52 25.88C105.907 27.0133 106.1 28.08 106.1 29.08C106.1 29.12 106.1 29.16 106.1 29.2C106.1 29.24 106.1 29.28 106.1 29.32H101.88C101.88 29.28 101.88 29.24 101.88 29.2C101.88 29.16 101.88 29.12 101.88 29.08C101.88 28.3333 101.747 27.5933 101.48 26.86C101.227 26.1133 100.833 25.44 100.3 24.84C99.78 24.24 99.1133 23.76 98.3 23.4C97.5 23.04 96.56 22.86 95.48 22.86C94.0133 22.86 92.66 23.2667 91.42 24.08C90.18 24.88 89.18 26.1267 88.42 27.82C87.66 29.5 87.28 31.66 87.28 34.3C87.28 36.3133 87.4867 38.0467 87.9 39.5C88.3267 40.94 88.9067 42.12 89.64 43.04C90.3733 43.9467 91.22 44.62 92.18 45.06C93.14 45.5 94.1667 45.72 95.26 45.72C96.7267 45.72 97.9333 45.4733 98.88 44.98C99.84 44.4733 100.58 43.8467 101.1 43.1C101.633 42.3533 101.973 41.6133 102.12 40.88V38.18H95.36V34.78H106.02V49H103.24L102.92 45.72C102.813 45.9467 102.593 46.26 102.26 46.66C101.927 47.06 101.447 47.4733 100.82 47.9C100.207 48.3267 99.42 48.6867 98.46 48.98C97.5133 49.2733 96.3733 49.42 95.04 49.42ZM115.233 17.74V49H110.953V17.74H115.233ZM130.303 49.4C128.116 49.4 126.183 48.9267 124.503 47.98C122.836 47.0333 121.53 45.7333 120.583 44.08C119.65 42.4133 119.183 40.5067 119.183 38.36C119.183 36.2267 119.65 34.34 120.583 32.7C121.53 31.0467 122.836 29.76 124.503 28.84C126.183 27.9067 128.116 27.44 130.303 27.44C132.49 27.44 134.416 27.9067 136.083 28.84C137.763 29.76 139.07 31.0467 140.003 32.7C140.95 34.34 141.423 36.2267 141.423 38.36C141.423 40.5067 140.95 42.4133 140.003 44.08C139.07 45.7333 137.763 47.0333 136.083 47.98C134.416 48.9267 132.49 49.4 130.303 49.4ZM130.303 45.68C131.636 45.68 132.81 45.38 133.823 44.78C134.836 44.18 135.63 43.3333 136.203 42.24C136.776 41.1333 137.063 39.84 137.063 38.36C137.063 36.8933 136.776 35.62 136.203 34.54C135.63 33.46 134.836 32.6267 133.823 32.04C132.81 31.4533 131.636 31.16 130.303 31.16C128.983 31.16 127.81 31.4533 126.783 32.04C125.77 32.6267 124.976 33.46 124.403 34.54C123.83 35.62 123.543 36.8933 123.543 38.36C123.543 39.84 123.83 41.1333 124.403 42.24C124.976 43.3333 125.77 44.18 126.783 44.78C127.81 45.38 128.983 45.68 130.303 45.68ZM156.434 49.42C154.781 49.42 153.247 49.0067 151.834 48.18C150.421 47.34 149.274 46.1933 148.394 44.74C147.527 43.2867 147.094 41.64 147.094 39.8C147.094 39.7467 147.094 39.7067 147.094 39.68C147.094 39.64 147.094 39.6 147.094 39.56L149.614 39.5C149.614 39.5267 149.614 39.56 149.614 39.6C149.614 39.6267 149.614 39.66 149.614 39.7C149.614 40.7933 149.894 41.78 150.454 42.66C151.027 43.5267 151.767 44.2133 152.674 44.72C153.581 45.2267 154.554 45.48 155.594 45.48C157.301 45.48 158.734 44.9 159.894 43.74C161.067 42.5667 161.654 40.7667 161.654 38.34C161.654 35.9 161.074 34.1067 159.914 32.96C158.754 31.8 157.314 31.22 155.594 31.22C154.554 31.22 153.581 31.4733 152.674 31.98C151.767 32.4733 151.027 33.1533 150.454 34.02C149.894 34.8733 149.614 35.8533 149.614 36.96L147.094 36.86C147.094 35.0067 147.527 33.3733 148.394 31.96C149.274 30.5333 150.421 29.42 151.834 28.62C153.247 27.82 154.781 27.42 156.434 27.42C158.154 27.42 159.747 27.8467 161.214 28.7C162.681 29.54 163.861 30.7733 164.754 32.4C165.661 34.0267 166.114 36.0067 166.114 38.34C166.114 40.7267 165.674 42.7467 164.794 44.4C163.914 46.0533 162.741 47.3067 161.274 48.16C159.807 49 158.194 49.42 156.434 49.42ZM145.254 49V17.74H149.614V49H145.254ZM177.278 49.42C175.678 49.42 174.271 49.1667 173.058 48.66C171.858 48.1533 170.925 47.4267 170.258 46.48C169.591 45.5333 169.258 44.3933 169.258 43.06C169.258 41.6333 169.631 40.4533 170.378 39.52C171.138 38.5867 172.178 37.8667 173.498 37.36C174.831 36.84 176.345 36.5 178.038 36.34C180.558 36.0867 182.331 35.84 183.358 35.6C184.398 35.36 184.918 34.9667 184.918 34.42C184.918 34.4067 184.918 34.3933 184.918 34.38C184.918 33.3 184.458 32.48 183.538 31.92C182.618 31.36 181.305 31.08 179.598 31.08C177.798 31.08 176.405 31.4 175.418 32.04C174.445 32.6667 173.958 33.6667 173.958 35.04H169.698C169.698 33.4133 170.118 32.0333 170.958 30.9C171.811 29.7667 172.985 28.9067 174.478 28.32C175.971 27.72 177.685 27.42 179.618 27.42C181.391 27.42 183.005 27.6933 184.458 28.24C185.925 28.7733 187.091 29.5733 187.958 30.64C188.825 31.7067 189.258 33.0333 189.258 34.62C189.258 34.9 189.258 35.18 189.258 35.46C189.258 35.7267 189.258 36 189.258 36.28V44.76C189.258 45.2533 189.278 45.7333 189.318 46.2C189.358 46.6533 189.431 47.06 189.538 47.42C189.658 47.8333 189.798 48.1733 189.958 48.44C190.131 48.7067 190.271 48.8933 190.378 49H186.058C185.978 48.92 185.858 48.7533 185.698 48.5C185.551 48.2333 185.418 47.9267 185.298 47.58C185.178 47.2467 185.085 46.8667 185.018 46.44C184.965 46 184.938 45.5267 184.938 45.02L185.738 45.58C185.338 46.3533 184.731 47.0267 183.918 47.6C183.118 48.1733 182.151 48.62 181.018 48.94C179.898 49.26 178.651 49.42 177.278 49.42ZM178.178 45.82C179.418 45.82 180.545 45.6267 181.558 45.24C182.585 44.84 183.405 44.24 184.018 43.44C184.631 42.6267 184.938 41.6067 184.938 40.38V36.86L185.958 38.2C185.105 38.5333 184.058 38.8067 182.818 39.02C181.591 39.22 180.325 39.3867 179.018 39.52C177.218 39.68 175.865 39.9933 174.958 40.46C174.051 40.9133 173.598 41.6733 173.598 42.74C173.598 43.7667 173.971 44.54 174.718 45.06C175.478 45.5667 176.631 45.82 178.178 45.82ZM198.108 17.74V49H193.828V17.74H198.108ZM202.858 49V19.5H207.138V49H202.858ZM211.622 49V19.5H219.722C221.682 19.5 223.455 19.8467 225.042 20.54C226.629 21.2333 227.982 22.22 229.102 23.5C230.235 24.78 231.109 26.3267 231.722 28.14C232.335 29.9533 232.642 31.98 232.642 34.22C232.642 36.4733 232.335 38.5067 231.722 40.32C231.109 42.1333 230.235 43.6867 229.102 44.98C227.982 46.2733 226.629 47.2667 225.042 47.96C223.455 48.6533 221.682 49 219.722 49H211.622ZM215.982 47.68L214.022 45.4H219.202C220.935 45.4 222.482 44.9467 223.842 44.04C225.215 43.1333 226.289 41.8467 227.062 40.18C227.835 38.5 228.222 36.5133 228.222 34.22C228.222 31.9133 227.835 29.9333 227.062 28.28C226.289 26.6133 225.215 25.3333 223.842 24.44C222.482 23.5467 220.935 23.1 219.202 23.1H214.022L215.982 20.82V47.68Z"/>
  </g>
  <g fill="#FF671F">
    <path d="M9.39632 65.696C8.85455 65.696 8.36357 65.4759 7.92338 65.0357C7.48319 64.5955 7.2631 64.1046 7.2631 63.5628V58.2297C7.2631 55.1823 8.2112 52.4904 10.1074 50.154C12.0036 47.8176 14.4415 46.3277 17.4213 45.6844C16.0669 46.6325 15.0172 47.8261 14.2722 49.2652C13.5273 50.7042 13.1548 52.2533 13.1548 53.9125V63.5628C13.1548 63.9353 13.2056 64.3077 13.3072 64.6802C13.4088 65.0527 13.5781 65.3913 13.8151 65.696H9.39632ZM16.8626 65.696C16.287 65.696 15.7875 65.4844 15.3643 65.0611C14.941 64.6379 14.7294 64.1384 14.7294 63.5628V53.9125C14.7294 51.5423 15.5674 49.5276 17.2435 47.8684C18.9196 46.2092 20.9428 45.3796 23.313 45.3796H32.9125C35.2828 45.3796 37.2975 46.2092 38.9566 47.8684C40.6158 49.5276 41.4454 51.5423 41.4454 53.9125V57.1631C41.4454 59.5334 40.6158 61.5481 38.9566 63.2073C37.2975 64.8664 35.2828 65.696 32.9125 65.696H16.8626ZM24.3796 41.1132C22.1448 41.1132 20.2486 40.3344 18.6911 38.7768C17.1335 37.2192 16.3547 35.323 16.3547 33.0882C16.3547 30.8534 17.1335 28.9572 18.6911 27.3997C20.2486 25.8421 22.1448 25.0633 24.3796 25.0633C26.6144 25.0633 28.5106 25.8421 30.0682 27.3997C31.6258 28.9572 32.4046 30.8534 32.4046 33.0882C32.4046 35.323 31.6258 37.2192 30.0682 38.7768C28.5106 40.3344 26.6144 41.1132 24.3796 41.1132Z"/>
    <path d="M249.587 49H245.247V19.5H254.127C256.394 19.5 258.294 19.9267 259.827 20.78C261.374 21.6333 262.534 22.7867 263.307 24.24C264.094 25.68 264.487 27.2933 264.487 29.08C264.487 30.8667 264.087 32.5133 263.287 34.02C262.5 35.5133 261.334 36.7133 259.787 37.62C258.24 38.5267 256.354 38.98 254.127 38.98H249.587V49ZM249.587 37.5L247.627 35.38H253.627C255.04 35.38 256.227 35.1267 257.187 34.62C258.16 34.1 258.894 33.3667 259.387 32.42C259.88 31.4733 260.127 30.36 260.127 29.08C260.127 27.8 259.887 26.7133 259.407 25.82C258.927 24.9267 258.207 24.2533 257.247 23.8C256.287 23.3333 255.08 23.1 253.627 23.1H247.627L249.587 20.82V37.5ZM274.286 49.42C272.686 49.42 271.279 49.1667 270.066 48.66C268.866 48.1533 267.933 47.4267 267.266 46.48C266.599 45.5333 266.266 44.3933 266.266 43.06C266.266 41.6333 266.639 40.4533 267.386 39.52C268.146 38.5867 269.186 37.8667 270.506 37.36C271.839 36.84 273.353 36.5 275.046 36.34C277.566 36.0867 279.339 35.84 280.366 35.6C281.406 35.36 281.926 34.9667 281.926 34.42C281.926 34.4067 281.926 34.3933 281.926 34.38C281.926 33.3 281.466 32.48 280.546 31.92C279.626 31.36 278.313 31.08 276.606 31.08C274.806 31.08 273.413 31.4 272.426 32.04C271.453 32.6667 270.966 33.6667 270.966 35.04H266.706C266.706 33.4133 267.126 32.0333 267.966 30.9C268.819 29.7667 269.993 28.9067 271.486 28.32C272.979 27.72 274.693 27.42 276.626 27.42C278.399 27.42 280.013 27.6933 281.466 28.24C282.933 28.7733 284.099 29.5733 284.966 30.64C285.833 31.7067 286.266 33.0333 286.266 34.62C286.266 34.9 286.266 35.18 286.266 35.46C286.266 35.7267 286.266 36 286.266 36.28V44.76C286.266 45.2533 286.286 45.7333 286.326 46.2C286.366 46.6533 286.439 47.06 286.546 47.42C286.666 47.8333 286.806 48.1733 286.966 48.44C287.139 48.7067 287.279 48.8933 287.386 49H283.066C282.986 48.92 282.866 48.7533 282.706 48.5C282.559 48.2333 282.426 47.9267 282.306 47.58C282.186 47.2467 282.093 46.8667 282.026 46.44C281.973 46 281.946 45.5267 281.946 45.02L282.746 45.58C282.346 46.3533 281.739 47.0267 280.926 47.6C280.126 48.1733 282.151 48.62 281.018 48.94C279.898 49.26 278.651 49.42 277.278 49.42ZM275.186 45.82C276.426 45.82 277.553 45.6267 278.566 45.24C279.593 44.84 280.413 44.24 281.026 43.44C281.639 42.6267 281.946 41.6067 281.946 40.38V36.86L282.966 38.2C282.113 38.5333 281.066 38.8067 279.826 39.02C278.599 39.22 277.333 39.3867 276.026 39.52C274.226 39.68 272.873 39.9933 271.966 40.46C271.059 40.9133 270.606 41.6733 270.606 42.74C270.606 43.7667 270.979 44.54 271.726 45.06C272.486 45.5667 273.639 45.82 275.186 45.82ZM298.895 49.42C297.629 49.42 296.435 49.28 295.315 49C294.195 48.72 293.209 48.3133 292.355 47.78C291.515 47.2333 290.855 46.56 290.375 45.76C289.909 44.96 289.675 44.0333 289.675 42.98C289.675 42.8867 289.675 42.7933 289.675 42.7C289.675 42.5933 289.675 42.5067 289.675 42.44H293.995C293.995 42.5067 293.995 42.5667 293.995 42.62C293.995 42.6733 293.995 42.7467 293.995 42.84C293.995 43.8133 294.442 44.5533 295.335 45.06C296.242 45.5533 297.469 45.8 299.015 45.8C299.922 45.8 300.749 45.7067 301.495 45.52C302.255 45.3333 302.855 45.0467 303.295 44.66C303.749 44.2733 303.975 43.78 303.975 43.18C303.975 42.2067 303.495 41.5133 302.535 41.1C301.589 40.6867 300.149 40.32 298.215 40C297.162 39.8133 296.142 39.5733 295.155 39.28C294.182 38.9867 293.302 38.6 292.515 38.12C291.742 37.6267 291.122 37.02 290.655 36.3C290.202 35.5667 289.975 34.6867 289.975 33.66C289.975 32.3267 290.375 31.1933 291.175 30.26C291.975 29.3267 293.055 28.62 294.415 28.14C295.775 27.66 297.275 27.42 298.915 27.42C300.502 27.42 301.969 27.68 303.315 28.2C304.675 28.7067 305.769 29.4467 306.595 30.42C307.422 31.38 307.835 32.56 307.835 33.96C307.835 34.0133 307.835 34.0733 307.835 34.14C307.835 34.2067 307.835 34.2667 307.835 34.32H303.535C303.535 34.2667 303.535 34.22 303.535 34.18C303.535 34.14 303.535 34.0933 303.535 34.04C303.535 33.3467 303.315 32.78 302.875 32.34C302.435 31.9 301.862 31.5733 301.155 31.36C300.462 31.1333 299.722 31.02 298.935 31.02C298.215 31.02 297.489 31.1 296.755 31.26C296.035 31.4067 295.435 31.6667 294.955 32.04C294.475 32.4 294.235 32.8933 294.235 33.52C294.235 34.16 294.469 34.6733 294.935 35.06C295.402 35.4333 296.062 35.7467 296.915 36C297.769 36.24 298.762 36.46 299.895 36.66C300.935 36.8467 301.949 37.0867 302.935 37.38C303.922 37.66 304.809 38.0333 305.595 38.5C306.395 38.9667 307.029 39.5667 307.495 40.3C307.975 41.0333 308.215 41.9333 308.215 43C308.215 44.1067 307.962 45.06 307.455 45.86C306.949 46.66 306.255 47.3267 305.375 47.86C304.509 48.38 303.515 48.7667 302.395 49.02C301.289 49.2867 300.122 49.42 298.895 49.42ZM320.356 49.42C319.09 49.42 317.896 49.28 316.776 49C315.656 48.72 314.67 48.3133 313.816 47.78C312.976 47.2333 312.316 46.56 311.836 45.76C311.37 44.96 311.136 44.0333 311.136 42.98C311.136 42.8867 311.136 42.7933 311.136 42.7C311.136 42.5933 311.136 42.5067 311.136 42.44H315.456C315.456 42.5067 315.456 42.5667 315.456 42.62C315.456 42.6733 315.456 42.7467 315.456 42.84C315.456 43.8133 315.903 44.5533 316.796 45.06C317.703 45.5533 318.93 45.8 320.476 45.8C321.383 45.8 322.21 45.7067 322.956 45.52C323.716 45.3333 324.316 45.0467 324.756 44.66C325.21 44.2733 325.436 43.78 325.436 43.18C325.436 42.2067 324.956 41.5133 323.996 41.1C323.05 40.6867 321.61 40.32 319.676 40C318.623 39.8133 317.603 39.5733 316.616 39.28C315.643 38.9867 314.763 38.6 313.976 38.12C313.203 37.6267 312.583 37.02 312.116 36.3C311.663 35.5667 311.436 34.6867 311.436 33.66C311.436 32.3267 311.836 31.1933 312.636 30.26C313.436 29.3267 314.516 28.62 315.876 28.14C317.236 27.66 318.736 27.42 320.376 27.42C321.963 27.42 323.43 27.68 324.776 28.2C326.136 28.7067 327.23 29.4467 328.056 30.42C328.883 31.38 329.296 32.56 329.296 33.96C329.296 34.0133 329.296 34.0733 329.296 34.14C329.296 34.2067 329.296 34.2667 329.296 34.32H324.996C324.996 34.2667 324.996 34.22 324.996 34.18C324.996 34.14 324.996 34.0933 324.996 34.04C324.996 33.3467 324.776 32.78 324.336 32.34C323.896 31.9 323.323 31.5733 322.616 31.36C321.923 31.1333 321.183 31.02 320.396 31.02C319.676 31.02 318.95 31.1 318.216 31.26C317.496 31.4067 316.896 31.6667 316.416 32.04C315.936 32.4 315.696 32.8933 315.696 33.52C315.696 34.16 315.93 34.6733 316.396 35.06C316.863 35.4333 317.523 35.7467 318.376 36C319.23 36.24 320.223 36.46 321.356 36.66C322.396 36.8467 323.41 37.0867 324.396 37.38C325.383 37.66 326.27 38.0333 327.056 38.5C327.856 38.9667 328.49 39.5667 328.956 40.3C329.436 41.0333 329.676 41.9333 329.676 43C329.676 44.1067 329.423 45.06 328.916 45.86C328.41 46.66 327.716 47.3267 326.836 47.86C325.97 48.38 324.976 48.7667 323.856 49.02C322.75 49.2867 321.583 49.42 320.356 49.42Z"/>
  </g>
</svg>